<svg width="256" height="177" viewBox="0 0 256 177" fill="none" xmlns="http://www.w3.org/2000/svg">
<g clip-path="url(#clip0_1137_227)">
<path d="M136.964 48.0746C135.051 48.0746 133.439 49.4672 133.117 51.3038H129.612L136.159 44.7445C136.421 44.4821 136.421 44.0381 136.159 43.7757C135.897 43.5133 135.454 43.5133 135.192 43.7757L127.96 51.0212L125.059 48.1149L128.443 44.7243C128.705 44.4619 128.705 44.0179 128.443 43.7555C128.181 43.4932 127.738 43.4932 127.476 43.7555L124.092 47.1462L120.708 43.7555C120.446 43.4932 120.003 43.4932 119.741 43.7555C119.479 44.0179 119.479 44.4619 119.741 44.7243L123.125 48.1149L119.942 51.3038H109.709L116.256 44.7445C116.517 44.4821 116.517 44.0381 116.256 43.7757C115.994 43.5133 115.551 43.5133 115.289 43.7757L107.775 51.3038H101.993L108.54 44.7445C108.782 44.5023 108.802 44.1188 108.58 43.8363C108.54 43.4932 108.258 43.2308 107.916 43.2308H98.649L102.738 39.1338H113.375C113.758 39.1338 114.06 38.831 114.06 38.4475C114.06 38.0641 113.758 37.7613 113.375 37.7613H104.108L111.34 30.5159H115.833V35.2991C115.833 35.6826 116.135 35.9853 116.517 35.9853C116.9 35.9853 117.202 35.6826 117.202 35.2991V30.5159H121.977C122.359 30.5159 122.662 30.2131 122.662 29.8296C122.662 29.4462 122.359 29.1434 121.977 29.1434H117.202V25.0464H127.436C127.819 25.0464 128.121 24.7437 128.121 24.3602C128.121 23.9767 127.819 23.674 127.436 23.674H118.169L120.647 21.1916C121.312 21.6558 122.098 21.8979 122.883 21.8979C123.89 21.8979 124.878 21.5145 125.643 20.7475C127.174 19.2137 127.174 16.7312 125.643 15.1974C124.172 13.7241 121.594 13.7241 120.103 15.1974C118.754 16.5496 118.613 18.6688 119.66 20.2026L117.182 22.6851V13.4011C117.182 13.0177 116.88 12.7149 116.497 12.7149C116.115 12.7149 115.812 13.0177 115.812 13.4011V23.6538H111.723V18.9109C111.723 18.5275 111.421 18.2247 111.038 18.2247C110.655 18.2247 110.353 18.5275 110.353 18.9109V23.6942H105.579C105.196 23.6942 104.894 23.9969 104.894 24.3804C104.894 24.7639 105.196 25.0666 105.579 25.0666H110.353V29.5673L103.121 36.8128V27.5288C103.121 27.1454 102.819 26.8426 102.436 26.8426C102.053 26.8426 101.751 27.1454 101.751 27.5288V38.1852L97.6619 42.2822V32.9983C97.6619 32.6552 97.4001 32.3726 97.0576 32.3323C96.7957 32.1304 96.413 32.1304 96.1511 32.3726L89.604 38.9319V33.1396L97.118 25.6115C97.3799 25.3491 97.3799 24.9051 97.118 24.6428C96.8561 24.3804 96.413 24.3804 96.1511 24.6428L89.604 31.2021V20.9494L92.7869 17.7605L96.1712 21.1512C96.3122 21.2925 96.4734 21.353 96.6547 21.353C96.836 21.353 96.9972 21.2925 97.1382 21.1512C97.4001 20.8888 97.4001 20.4448 97.1382 20.1824L93.7538 16.7918L97.1382 13.4011C97.4001 13.1388 97.4001 12.6948 97.1382 12.4324C96.8763 12.17 96.4331 12.17 96.1712 12.4324L92.7869 15.823L89.886 12.9168L97.118 5.67127C97.3799 5.40889 97.3799 4.96488 97.118 4.70251C96.8561 4.44014 96.413 4.44014 96.1511 4.70251L89.604 11.2618V7.77024C91.4372 7.44732 92.8272 5.85291 92.8272 3.91539C92.8272 1.75587 91.0746 0 88.9191 0C86.7636 0 85.011 1.75587 85.011 3.91539C85.011 5.83273 86.401 7.44732 88.2342 7.77024V11.282L81.6871 4.72269C81.4252 4.46032 80.9821 4.46032 80.7202 4.72269C80.4583 4.98506 80.4583 5.42908 80.7202 5.69145L87.9521 12.9369L85.0513 15.8432L81.667 12.4526C81.4051 12.1902 80.9619 12.1902 80.7 12.4526C80.4381 12.7149 80.4381 13.159 80.7 13.4213L84.0844 16.812L80.7806 20.1824C80.5187 20.4448 80.5187 20.8888 80.7806 21.1512C81.0425 21.4136 81.4857 21.4136 81.7476 21.1512L85.1319 17.7605L88.3148 20.9494V31.2021L81.7677 24.6428C81.5058 24.3804 81.0626 24.3804 80.8008 24.6428C80.5389 24.9051 80.5389 25.3491 80.8008 25.6115L88.3148 33.1396V38.9319L81.7677 32.3726C81.526 32.1304 81.1432 32.1103 80.8612 32.3323C80.5187 32.3726 80.2568 32.6552 80.2568 32.9983V42.2822L76.1674 38.1852V27.5288C76.1674 27.1454 75.8653 26.8426 75.4825 26.8426C75.0998 26.8426 74.7976 27.1454 74.7976 27.5288V36.8128L67.5656 29.5673V25.0666H72.3399C72.7227 25.0666 73.0249 24.7639 73.0249 24.3804C73.0249 23.9969 72.7227 23.6942 72.3399 23.6942H67.5656V18.9109C67.5656 18.5275 67.2635 18.2247 66.8807 18.2247C66.4979 18.2247 66.1958 18.5275 66.1958 18.9109V23.6942H62.1064V13.4415C62.1064 13.058 61.8042 12.7553 61.4215 12.7553C61.0387 12.7553 60.7365 13.058 60.7365 13.4415V22.7254L58.2587 20.243C58.7221 19.5971 58.9638 18.81 58.9638 18.0027C58.9638 16.9533 58.5609 15.9643 57.8155 15.2377C56.345 13.7644 53.7664 13.7644 52.2757 15.2377C50.7447 16.7716 50.7447 19.254 52.2757 20.7879C53.0412 21.5548 54.0485 21.9383 55.0356 21.9383C55.8212 21.9383 56.6069 21.6961 57.2716 21.2319L59.7494 23.7144H50.4828C50.1001 23.7144 49.7979 24.0171 49.7979 24.4006C49.7979 24.784 50.1001 25.0868 50.4828 25.0868H60.7164V29.1838H55.9421C55.5593 29.1838 55.2572 29.4865 55.2572 29.87C55.2572 30.2535 55.5593 30.5562 55.9421 30.5562H60.7164V35.3395C60.7164 35.7229 61.0186 36.0257 61.4013 36.0257C61.7841 36.0257 62.0862 35.7229 62.0862 35.3395V30.5562H66.5785L73.8105 37.8017H64.5439C64.1612 37.8017 63.859 38.1044 63.859 38.4879C63.859 38.8714 64.1612 39.1741 64.5439 39.1741H75.1804L79.2697 43.2712H70.0031C69.6607 43.2712 69.3787 43.5335 69.3384 43.8766C69.1369 44.139 69.1369 44.5225 69.3787 44.7848L75.9257 51.3441H70.1442L62.6301 43.8161C62.3683 43.5537 61.9251 43.5537 61.6632 43.8161C61.4013 44.0784 61.4013 44.5225 61.6632 44.7848L68.2103 51.3441H57.9767L54.7938 48.1553L58.1781 44.7647C58.44 44.5023 58.44 44.0583 58.1781 43.7959C57.9163 43.5335 57.4731 43.5335 57.2112 43.7959L53.8269 47.1865L50.4426 43.7959C50.1807 43.5335 49.7375 43.5335 49.4756 43.7959C49.2137 44.0583 49.2137 44.5023 49.4756 44.7647L52.8599 48.1553L49.9591 51.0616L42.7271 43.8161C42.4652 43.5537 42.022 43.5537 41.7601 43.8161C41.4983 44.0784 41.4983 44.5225 41.7601 44.7848L48.3072 51.3441H44.802C44.4797 49.5075 42.8883 48.1149 40.9544 48.1149C38.7989 48.1149 37.0463 49.8708 37.0463 52.0303C37.0463 54.1899 38.7989 55.9457 40.9544 55.9457C42.8681 55.9457 44.4797 54.5531 44.802 52.7165H48.3072L41.7601 59.2758C41.4983 59.5382 41.4983 59.9822 41.7601 60.2446C41.9012 60.3859 42.0623 60.4464 42.2436 60.4464C42.4249 60.4464 42.5861 60.3859 42.7271 60.2446L49.9591 52.9991L52.8599 55.9054L49.4756 59.296C49.2137 59.5584 49.2137 60.0024 49.4756 60.2648C49.6166 60.406 49.7778 60.4666 49.9591 60.4666C50.1404 60.4666 50.3015 60.406 50.4426 60.2648L53.8269 56.8741L57.2112 60.2648C57.3522 60.406 57.5134 60.4666 57.6947 60.4666C57.876 60.4666 58.0371 60.406 58.1781 60.2648C58.44 60.0024 58.44 59.5584 58.1781 59.296L54.7938 55.9054L57.9767 52.7165H68.2103L61.6632 59.2758C61.4013 59.5382 61.4013 59.9822 61.6632 60.2446C61.8042 60.3859 61.9654 60.4464 62.1467 60.4464C62.328 60.4464 62.4891 60.3859 62.6301 60.2446L70.1442 52.7165H75.9257L69.3787 59.2758C69.1369 59.518 69.1168 59.9015 69.3384 60.184C69.3787 60.5271 69.6607 60.7895 70.0031 60.7895H79.2697L75.1804 64.8866H64.5439C64.1612 64.8866 63.859 65.1893 63.859 65.5728C63.859 65.9562 64.1612 66.259 64.5439 66.259H73.8105L66.5785 73.5044H62.0862V68.7212C62.0862 68.3377 61.7841 68.035 61.4013 68.035C61.0186 68.035 60.7164 68.3377 60.7164 68.7212V73.5044H55.9421C55.5593 73.5044 55.2572 73.8072 55.2572 74.1906C55.2572 74.5741 55.5593 74.8769 55.9421 74.8769H60.7164V78.9739H50.4828C50.1001 78.9739 49.7979 79.2766 49.7979 79.6601C49.7979 80.0436 50.1001 80.3463 50.4828 80.3463H59.7494L57.2716 82.8287C55.7608 81.7994 53.5851 81.9407 52.2757 83.2526C51.5304 83.9993 51.1275 84.9681 51.1275 86.0176C51.1275 87.067 51.5304 88.056 52.2757 88.7826C53.0211 89.5293 53.988 89.933 55.0356 89.933C56.0831 89.933 57.0702 89.5293 57.7954 88.7826C58.5408 88.0358 58.9437 87.067 58.9437 86.0176C58.9437 85.2103 58.6818 84.4231 58.2386 83.7773L60.7164 81.2949V90.5788C60.7164 90.9623 61.0186 91.265 61.4013 91.265C61.7841 91.265 62.0862 90.9623 62.0862 90.5788V80.3261H66.1756V85.1093C66.1756 85.4928 66.4778 85.7955 66.8606 85.7955C67.2433 85.7955 67.5455 85.4928 67.5455 85.1093V80.3261H72.3198C72.7025 80.3261 73.0047 80.0234 73.0047 79.6399C73.0047 79.2564 72.7025 78.9537 72.3198 78.9537H67.5455V74.453L74.7775 67.2075V76.4915C74.7775 76.8749 75.0796 77.1777 75.4624 77.1777C75.8451 77.1777 76.1473 76.8749 76.1473 76.4915V65.8351L80.2367 61.7381V71.022C80.2367 71.3651 80.4986 71.6477 80.841 71.688C81.1029 71.8899 81.4857 71.8899 81.7476 71.6477L88.2946 65.0884V70.8807L80.7806 78.4088C80.5187 78.6712 80.5187 79.1152 80.7806 79.3775C81.0425 79.6399 81.4857 79.6399 81.7476 79.3775L88.2946 72.8182V83.0709L85.1117 86.2598L81.7274 82.8691C81.4655 82.6067 81.0223 82.6067 80.7605 82.8691C80.4986 83.1315 80.4986 83.5755 80.7605 83.8379L84.1448 87.2285L80.7605 90.6192C80.4986 90.8815 80.4986 91.3255 80.7605 91.5879C81.0223 91.8503 81.4655 91.8503 81.7274 91.5879L85.1117 88.1973L88.0126 91.1035L80.7806 98.349C80.5187 98.6114 80.5187 99.0554 80.7806 99.3178C80.9216 99.4591 81.0828 99.5196 81.2641 99.5196C81.4454 99.5196 81.6065 99.4591 81.7476 99.3178L88.2946 92.7585V96.2702C86.4614 96.5932 85.0714 98.1876 85.0714 100.125C85.0714 102.285 86.824 104.04 88.9795 104.04C91.135 104.04 92.8876 102.285 92.8876 100.125C92.8876 98.2078 91.4976 96.5932 89.6645 96.2702V92.7585L96.2115 99.3178C96.4734 99.5802 96.9166 99.5802 97.1785 99.3178C97.4403 99.0554 97.4403 98.6114 97.1785 98.349L89.9465 91.1035L92.8473 88.1973L96.2317 91.5879C96.3727 91.7292 96.5338 91.7897 96.7151 91.7897C96.8964 91.7897 97.0576 91.7292 97.1986 91.5879C97.4605 91.3255 97.4605 90.8815 97.1986 90.6192L93.8143 87.2285L97.1986 83.8379C97.4605 83.5755 97.4605 83.1315 97.1986 82.8691C96.9367 82.6067 96.4935 82.6067 96.2317 82.8691L92.8473 86.2598L89.6645 83.0709V72.8182L96.2115 79.3775C96.3525 79.5188 96.5137 79.5794 96.695 79.5794C96.8763 79.5794 97.0375 79.5188 97.1785 79.3775C97.4403 79.1152 97.4403 78.6712 97.1785 78.4088L89.6645 70.8807V65.0884L96.2115 71.6477C96.3525 71.7889 96.5137 71.8495 96.695 71.8495C96.836 71.8495 96.977 71.7889 97.118 71.688C97.4605 71.6477 97.7224 71.3651 97.7224 71.022V61.7381L101.812 65.8351V76.4915C101.812 76.8749 102.114 77.1777 102.497 77.1777C102.879 77.1777 103.182 76.8749 103.182 76.4915V67.2075L110.414 74.453V78.9537H105.639C105.257 78.9537 104.954 79.2564 104.954 79.6399C104.954 80.0234 105.257 80.3261 105.639 80.3261H110.414V85.1093C110.414 85.4928 110.716 85.7955 111.099 85.7955C111.481 85.7955 111.783 85.4928 111.783 85.1093V80.3261H115.873V90.5788C115.873 90.9623 116.175 91.265 116.558 91.265C116.94 91.265 117.243 90.9623 117.243 90.5788V81.2949L119.72 83.7773C119.257 84.4231 119.015 85.2103 119.015 86.0176C119.015 87.067 119.418 88.056 120.164 88.7826C120.909 89.5293 121.876 89.933 122.924 89.933C123.971 89.933 124.958 89.5293 125.683 88.7826C126.429 88.0358 126.832 87.067 126.832 86.0176C126.832 84.9681 126.429 83.9791 125.683 83.2526C124.374 81.9407 122.198 81.7994 120.687 82.8287L118.21 80.3463H127.476C127.859 80.3463 128.161 80.0436 128.161 79.6601C128.161 79.2766 127.859 78.9739 127.476 78.9739H117.243V74.8769H122.017C122.4 74.8769 122.702 74.5741 122.702 74.1906C122.702 73.8072 122.4 73.5044 122.017 73.5044H117.243V68.7212C117.243 68.3377 116.94 68.035 116.558 68.035C116.175 68.035 115.873 68.3377 115.873 68.7212V73.5044H111.381L104.149 66.259H113.415C113.798 66.259 114.1 65.9562 114.1 65.5728C114.1 65.1893 113.798 64.8866 113.415 64.8866H102.779L98.6893 60.7895H107.956C108.298 60.7895 108.58 60.5271 108.621 60.184C108.822 59.9217 108.822 59.5382 108.58 59.2758L102.033 52.7165H107.815L115.329 60.2446C115.47 60.3859 115.631 60.4464 115.812 60.4464C115.994 60.4464 116.155 60.3859 116.296 60.2446C116.558 59.9822 116.558 59.5382 116.296 59.2758L109.749 52.7165H119.982L123.165 55.9054L119.781 59.296C119.519 59.5584 119.519 60.0024 119.781 60.2648C119.922 60.406 120.083 60.4666 120.264 60.4666C120.446 60.4666 120.607 60.406 120.748 60.2648L124.132 56.8741L127.517 60.2648C127.658 60.406 127.819 60.4666 128 60.4666C128.181 60.4666 128.342 60.406 128.483 60.2648C128.745 60.0024 128.745 59.5584 128.483 59.296L125.099 55.9054L128 52.9991L135.232 60.2446C135.373 60.3859 135.534 60.4464 135.715 60.4464C135.897 60.4464 136.058 60.3859 136.199 60.2446C136.461 59.9822 136.461 59.5382 136.199 59.2758L129.652 52.7165H133.157C133.479 54.5531 135.071 55.9457 137.005 55.9457C139.16 55.9457 140.913 54.1899 140.913 52.0303C140.873 49.8506 139.12 48.0746 136.964 48.0746ZM121.11 16.2065C121.594 15.7221 122.239 15.4597 122.903 15.4597C123.588 15.4597 124.213 15.7221 124.696 16.2065C125.683 17.1954 125.683 18.81 124.696 19.8192C123.709 20.8081 122.098 20.8081 121.09 19.8192C120.123 18.81 120.123 17.1954 121.11 16.2065ZM115.853 29.1636H112.73L115.853 26.0353V29.1636ZM111.763 25.0666H114.886L111.763 28.1949V25.0666ZM56.8284 19.799C55.8414 20.7879 54.2298 20.7879 53.2225 19.799C52.2354 18.81 52.2354 17.1954 53.2225 16.1863C53.706 15.7019 54.3506 15.4396 55.0154 15.4396C55.7003 15.4396 56.3248 15.7019 56.8083 16.1863C57.2918 16.6707 57.5537 17.3165 57.5537 17.9826C57.5738 18.6889 57.3119 19.3146 56.8284 19.799ZM62.0862 29.1636V26.0353L65.2087 29.1636H62.0862ZM66.1756 28.1949L63.0532 25.0666H66.1756V28.1949ZM40.9745 54.5531C39.5644 54.5531 38.4363 53.4027 38.4363 52.0102C38.4363 50.5974 39.5845 49.4672 40.9745 49.4672C42.3846 49.4672 43.5127 50.6176 43.5127 52.0102C43.5127 53.4027 42.3846 54.5531 40.9745 54.5531ZM53.847 54.8962L51.6311 52.6762H56.0428L53.847 54.8962ZM51.6311 51.3239L53.847 49.1039L56.0629 51.3239H51.6311ZM56.8284 87.7936C55.8615 88.7624 54.1895 88.7624 53.2225 87.7936C52.2354 86.8047 52.2354 85.1901 53.2225 84.181C53.706 83.6966 54.3506 83.4342 55.0154 83.4342C55.7003 83.4342 56.3248 83.6966 56.8083 84.181C57.2918 84.6653 57.5537 85.3112 57.5537 85.9772C57.5738 86.6836 57.3119 87.3294 56.8284 87.7936ZM62.0862 74.8365H65.2087L62.0862 77.9648V74.8365ZM66.1756 78.9335H63.0532L66.1756 75.8053V78.9335ZM121.11 84.2011C121.594 83.7168 122.239 83.4544 122.903 83.4544C123.588 83.4544 124.213 83.7168 124.696 84.2011C125.683 85.1901 125.683 86.8047 124.696 87.8138C123.729 88.7826 122.057 88.7826 121.09 87.8138C120.123 86.8047 120.123 85.1901 121.11 84.2011ZM115.853 74.8365V77.9648L112.73 74.8365H115.853ZM111.763 75.8053L114.886 78.9335H111.763V75.8053ZM97.2993 44.6234H106.747L100.059 51.3239H90.6113L97.2993 44.6234ZM96.3324 34.1891V43.6546L89.6443 50.3552V40.8896L96.3324 34.1891ZM91.8602 16.812L89.6443 19.032V14.5919L91.8602 16.812ZM86.0787 16.812L88.2946 14.5919V19.0119L86.0787 16.812ZM81.6065 34.1891L88.2946 40.8896V50.3552L81.6065 43.6546V34.1891ZM71.1917 44.6234H80.6396L87.3277 51.3239H77.8798L71.1917 44.6234ZM80.6396 59.3767H71.1917L77.8798 52.6762H87.3277L80.6396 59.3767ZM81.6065 69.8111V60.3455L88.2946 53.6449V63.1105L81.6065 69.8111ZM86.0787 87.2083L88.2946 84.9883V89.4082L86.0787 87.2083ZM91.5178 100.085C91.5178 101.497 90.3695 102.628 88.9795 102.628C87.5694 102.628 86.4413 101.477 86.4413 100.085C86.4413 98.672 87.5895 97.5417 88.9795 97.5417C90.3695 97.5417 91.5178 98.672 91.5178 100.085ZM91.8602 87.2083L89.6443 89.4284V85.0084L91.8602 87.2083ZM88.9795 6.45838C87.5694 6.45838 86.4413 5.30798 86.4413 3.91539C86.4413 2.50262 87.5895 1.37241 88.9795 1.37241C90.3897 1.37241 91.5178 2.52281 91.5178 3.91539C91.5178 5.32816 90.3695 6.45838 88.9795 6.45838ZM96.3324 69.8111L89.6443 63.1105V53.6449L96.3324 60.3455V69.8111ZM106.747 59.3767H97.2993L90.6113 52.6762H100.059L106.747 59.3767ZM124.112 54.8962L121.896 52.6762H126.308L124.112 54.8962ZM121.896 51.3239L124.112 49.1039L126.328 51.3239H121.896ZM136.964 54.5531C135.554 54.5531 134.426 53.4027 134.426 52.0102C134.426 50.5974 135.574 49.4672 136.964 49.4672C138.375 49.4672 139.503 50.6176 139.503 52.0102C139.503 53.4027 138.375 54.5531 136.964 54.5531Z" fill="#0063F8"/>
<path d="M146.876 69.811C146.876 71.1431 147.963 72.2127 149.273 72.2127C150.461 72.2127 151.428 71.3449 151.63 70.2349H153.785L149.756 74.2713C149.595 74.4328 149.595 74.6952 149.756 74.8768C149.837 74.9575 149.938 74.9979 150.059 74.9979C150.179 74.9979 150.28 74.9575 150.361 74.8768L154.813 70.4165L156.585 72.1926L154.511 74.2713C154.349 74.4328 154.349 74.6952 154.511 74.8768C154.591 74.9575 154.692 74.9979 154.813 74.9979C154.913 74.9979 155.034 74.9575 155.115 74.8768L157.19 72.798L159.265 74.8768C159.345 74.9575 159.446 74.9979 159.567 74.9979C159.688 74.9979 159.788 74.9575 159.869 74.8768C160.03 74.7154 160.03 74.453 159.869 74.2713L157.794 72.1926L159.748 70.2349H166.033L162.004 74.2713C161.843 74.4328 161.843 74.6952 162.004 74.8768C162.085 74.9575 162.186 74.9979 162.307 74.9979C162.407 74.9979 162.528 74.9575 162.609 74.8768L167.202 70.2349H170.747L166.718 74.2713C166.557 74.4328 166.557 74.6548 166.698 74.8163C166.718 75.0181 166.9 75.1796 167.101 75.1796H172.802L170.284 77.7024H163.757C163.515 77.7024 163.334 77.884 163.334 78.1262C163.334 78.3684 163.515 78.55 163.757 78.55H169.458L165.006 83.0103H162.246V80.0637C162.246 79.8215 162.065 79.6399 161.823 79.6399C161.581 79.6399 161.4 79.8215 161.4 80.0637V83.0103H158.459C158.217 83.0103 158.036 83.192 158.036 83.4342C158.036 83.6764 158.217 83.858 158.459 83.858H161.4V86.3808H155.115C154.873 86.3808 154.692 86.5625 154.692 86.8046C154.692 87.0468 154.873 87.2285 155.115 87.2285H160.816L159.285 88.7623C158.358 88.1367 157.029 88.2174 156.223 89.0247C155.76 89.4889 155.518 90.0742 155.518 90.72C155.518 91.3659 155.76 91.9713 156.223 92.4154C156.686 92.8796 157.291 93.1217 157.915 93.1217C158.56 93.1217 159.164 92.8796 159.607 92.4154C160.071 91.9512 160.312 91.3659 160.312 90.72C160.312 90.2155 160.151 89.7513 159.869 89.3476L161.4 87.8138V93.5254C161.4 93.7676 161.581 93.9492 161.823 93.9492C162.065 93.9492 162.246 93.7676 162.246 93.5254V87.2285H164.764V90.1751C164.764 90.4173 164.946 90.5989 165.187 90.5989C165.429 90.5989 165.61 90.4173 165.61 90.1751V87.2285H168.551C168.793 87.2285 168.974 87.0468 168.974 86.8046C168.974 86.5625 168.793 86.3808 168.551 86.3808H165.61V83.6158L170.062 79.1555V84.8671C170.062 85.1093 170.244 85.291 170.485 85.291C170.727 85.291 170.908 85.1093 170.908 84.8671V78.3078L173.426 75.785V81.4967C173.426 81.7187 173.588 81.8801 173.789 81.9003C173.87 81.9609 173.95 82.0012 174.051 82.0012C174.152 82.0012 174.273 81.9609 174.353 81.8801L178.382 77.8436V81.3958L173.769 86.0175C173.608 86.179 173.608 86.4414 173.769 86.6028C173.85 86.6835 173.95 86.7239 174.071 86.7239C174.172 86.7239 174.293 86.6835 174.373 86.6028L178.402 82.5663V88.8633L176.448 90.8209L174.373 88.7422C174.212 88.5807 173.95 88.5807 173.789 88.7422C173.628 88.9036 173.628 89.166 173.789 89.3476L175.864 91.4264L173.789 93.5052C173.628 93.6667 173.628 93.929 173.789 94.0905C173.87 94.1712 173.97 94.2116 174.091 94.2116C174.192 94.2116 174.313 94.1712 174.393 94.0905L176.468 92.0117L178.241 93.7878L173.789 98.2481C173.628 98.4095 173.628 98.6719 173.789 98.8334C173.95 98.9948 174.212 98.9948 174.373 98.8334L178.402 94.7969V96.9564C177.274 97.1582 176.428 98.1472 176.428 99.3178C176.428 100.65 177.516 101.719 178.825 101.719C180.155 101.719 181.223 100.63 181.223 99.3178C181.223 98.127 180.356 97.1582 179.248 96.9564V94.7969L183.277 98.8334C183.358 98.9141 183.459 98.9545 183.579 98.9545C183.68 98.9545 183.801 98.9141 183.882 98.8334C184.043 98.6719 184.043 98.4095 183.882 98.2481L179.43 93.7878L181.202 92.0117L183.277 94.0905C183.438 94.252 183.7 94.252 183.861 94.0905C184.023 93.929 184.023 93.6667 183.861 93.5052L181.787 91.4264L183.861 89.3476C184.023 89.1862 184.023 88.9238 183.861 88.7422C183.7 88.5807 183.438 88.5807 183.277 88.7422L181.202 90.8209L179.248 88.8633V82.5663L183.277 86.6028C183.438 86.7643 183.7 86.7643 183.861 86.6028C184.023 86.4414 184.023 86.179 183.861 86.0175L179.248 81.3958V77.8436L183.277 81.8801C183.438 82.0416 183.66 82.0416 183.821 81.9003C184.023 81.8801 184.184 81.6985 184.184 81.4967V75.785L186.702 78.3078V84.8469C186.702 85.0891 186.883 85.2708 187.125 85.2708C187.367 85.2708 187.548 85.0891 187.548 84.8469V79.1353L192 83.5956V86.3606H189.059C188.817 86.3606 188.636 86.5423 188.636 86.7845C188.636 87.0266 188.817 87.2083 189.059 87.2083H192V90.1549C192 90.3971 192.181 90.5788 192.423 90.5788C192.665 90.5788 192.846 90.3971 192.846 90.1549V87.2083H195.364V93.5052C195.364 93.7474 195.545 93.929 195.787 93.929C196.029 93.929 196.21 93.7474 196.21 93.5052V87.7936L197.741 89.3274C197.459 89.7311 197.298 90.1953 197.298 90.6999C197.298 91.3457 197.54 91.9512 198.003 92.3952C198.466 92.8594 199.071 93.1016 199.695 93.1016C200.34 93.1016 200.944 92.8594 201.387 92.3952C201.851 91.931 202.093 91.3457 202.093 90.6999C202.093 90.054 201.851 89.4485 201.387 89.0045C200.582 88.1972 199.252 88.1165 198.325 88.7422L196.794 87.2083H202.495C202.737 87.2083 202.918 87.0266 202.918 86.7845C202.918 86.5423 202.737 86.3606 202.495 86.3606H196.21V83.8378H199.151C199.393 83.8378 199.574 83.6562 199.574 83.414C199.574 83.1718 199.393 82.9902 199.151 82.9902H196.21V80.0435C196.21 79.8013 196.029 79.6197 195.787 79.6197C195.545 79.6197 195.364 79.8013 195.364 80.0435V82.9902H192.604L188.152 78.5298H193.853C194.095 78.5298 194.276 78.3482 194.276 78.106C194.276 77.8638 194.095 77.6822 193.853 77.6822H187.326L184.808 75.1594H190.509C190.731 75.1594 190.892 74.9979 190.912 74.7961C191.033 74.6346 191.033 74.3924 190.892 74.2512L186.863 70.2147H190.409L195.022 74.8365C195.102 74.9172 195.203 74.9576 195.324 74.9576C195.445 74.9576 195.545 74.9172 195.626 74.8365C195.787 74.675 195.787 74.4126 195.626 74.231L191.597 70.1945H197.882L199.836 72.1522L197.761 74.231C197.6 74.3924 197.6 74.6548 197.761 74.8365C197.842 74.9172 197.943 74.9576 198.064 74.9576C198.164 74.9576 198.285 74.9172 198.366 74.8365L200.441 72.7577L202.516 74.8365C202.596 74.9172 202.697 74.9576 202.818 74.9576C202.918 74.9576 203.039 74.9172 203.12 74.8365C203.281 74.675 203.281 74.4126 203.12 74.231L201.045 72.1522L202.818 70.3761L207.27 74.8365C207.35 74.9172 207.451 74.9576 207.572 74.9576C207.673 74.9576 207.794 74.9172 207.874 74.8365C208.035 74.675 208.035 74.4126 207.874 74.231L203.845 70.1945H206.001C206.202 71.3247 207.189 72.1724 208.358 72.1724C209.687 72.1724 210.755 71.0825 210.755 69.7707C210.755 68.4386 209.667 67.369 208.358 67.369C207.169 67.369 206.202 68.2368 206.001 69.3468H203.845L207.874 65.3103C208.035 65.1489 208.035 64.8865 207.874 64.7251C207.713 64.5636 207.451 64.5636 207.29 64.7251L202.838 69.1854L201.065 67.4093L203.14 65.3305C203.301 65.1691 203.301 64.9067 203.14 64.7452C202.979 64.5838 202.717 64.5838 202.536 64.7452L200.461 66.824L198.386 64.7452C198.225 64.5838 197.963 64.5838 197.802 64.7452C197.641 64.9067 197.641 65.1691 197.802 65.3305L199.877 67.4093L197.923 69.367H191.637L195.666 65.3305C195.827 65.1691 195.827 64.9067 195.666 64.7452C195.505 64.5838 195.243 64.5838 195.062 64.7452L190.449 69.367H186.903L190.932 65.3305C191.093 65.1691 191.093 64.9471 190.952 64.7856C190.932 64.5838 190.751 64.4223 190.55 64.4223H184.728L187.246 61.8995H193.773C194.014 61.8995 194.196 61.7179 194.196 61.4757C194.196 61.2335 194.014 61.0518 193.773 61.0518H188.072L192.524 56.5915H195.284V59.5382C195.284 59.7804 195.465 59.962 195.707 59.962C195.948 59.962 196.13 59.7804 196.13 59.5382V56.5915H199.071C199.313 56.5915 199.494 56.4099 199.494 56.1677C199.494 55.9255 199.313 55.7439 199.071 55.7439H196.13V53.2211H202.415C202.657 53.2211 202.838 53.0394 202.838 52.7972C202.838 52.555 202.657 52.3734 202.415 52.3734H196.714L198.245 50.8395C198.648 51.1221 199.131 51.2835 199.615 51.2835C200.239 51.2835 200.844 51.0414 201.307 50.5772C202.254 49.6286 202.254 48.1149 201.307 47.1663C200.4 46.2581 198.809 46.2581 197.902 47.1663C197.439 47.6305 197.197 48.2158 197.197 48.8617C197.197 49.3662 197.359 49.8304 197.641 50.2341L196.11 51.7679V46.0563C196.11 45.8141 195.928 45.6325 195.686 45.6325C195.445 45.6325 195.263 45.8141 195.263 46.0563V52.3532H192.786V49.4066C192.786 49.1644 192.604 48.9828 192.363 48.9828C192.121 48.9828 191.94 49.1644 191.94 49.4066V52.3532H188.998C188.757 52.3532 188.575 52.5349 188.575 52.777C188.575 53.0192 188.757 53.2009 188.998 53.2009H191.94V55.9659L187.488 60.4262V54.7146C187.488 54.4724 187.306 54.2907 187.065 54.2907C186.823 54.2907 186.641 54.4724 186.641 54.7146V61.2537L184.123 63.7765V58.0648C184.123 57.8428 183.962 57.6814 183.761 57.6612C183.6 57.5401 183.358 57.5401 183.217 57.6814L179.188 61.7179V58.1658L183.801 53.544C183.962 53.3825 183.962 53.1201 183.801 52.9385C183.64 52.777 183.378 52.777 183.217 52.9385L179.188 56.975V50.6781L181.142 48.7204L183.217 50.7992C183.378 50.9606 183.64 50.9606 183.801 50.7992C183.962 50.6377 183.962 50.3753 183.801 50.1937L181.726 48.1149L183.801 46.0361C183.962 45.8747 183.962 45.6123 183.801 45.4306C183.64 45.2692 183.378 45.2692 183.217 45.4306L181.142 47.5094L179.369 45.7334L183.821 41.2731C183.982 41.1116 183.982 40.8492 183.821 40.6676C183.66 40.5061 183.398 40.5061 183.237 40.6676L179.208 44.7041V42.5446C180.336 42.3427 181.182 41.3538 181.182 40.1832C181.182 38.8512 180.094 37.7815 178.785 37.7815C177.455 37.7815 176.388 38.8713 176.388 40.1832C176.388 41.374 177.254 42.3427 178.362 42.5446V44.7041L174.333 40.6676C174.172 40.5061 173.91 40.5061 173.749 40.6676C173.588 40.829 173.588 41.0914 173.749 41.2731L178.201 45.7334L176.428 47.5094L174.353 45.4306C174.192 45.2692 173.93 45.2692 173.769 45.4306C173.608 45.5921 173.608 45.8545 173.769 46.0361L175.844 48.1149L173.769 50.1937C173.608 50.3552 173.608 50.6175 173.769 50.7992C173.85 50.8799 173.95 50.9203 174.071 50.9203C174.172 50.9203 174.293 50.8799 174.373 50.7992L176.448 48.7204L178.402 50.6781V56.975L174.373 52.9385C174.212 52.777 173.95 52.777 173.789 52.9385C173.628 53.1 173.628 53.3623 173.789 53.544L178.402 58.1658V61.7179L174.373 57.6814C174.212 57.5199 173.991 57.5199 173.829 57.6612C173.628 57.6814 173.467 57.863 173.467 58.0648V63.7765L170.949 61.2537V54.7146C170.949 54.4724 170.767 54.2907 170.526 54.2907C170.284 54.2907 170.103 54.4724 170.103 54.7146V60.4262L165.651 55.9659V53.2009H168.592C168.833 53.2009 169.015 53.0192 169.015 52.777C169.015 52.5349 168.833 52.3532 168.592 52.3532H165.651V49.4066C165.651 49.1644 165.469 48.9828 165.228 48.9828C164.986 48.9828 164.805 49.1644 164.805 49.4066V52.3532H162.286V46.0563C162.286 45.8141 162.105 45.6325 161.863 45.6325C161.622 45.6325 161.44 45.8141 161.44 46.0563V51.7679L159.909 50.2341C160.554 49.2855 160.473 47.9938 159.647 47.1461C158.741 46.2379 157.15 46.2379 156.243 47.1461C155.296 48.0947 155.296 49.6084 156.243 50.557C156.706 51.0212 157.331 51.2634 157.935 51.2634C158.419 51.2634 158.902 51.1221 159.305 50.8194L160.836 52.3532H155.115C154.873 52.3532 154.692 52.5349 154.692 52.777C154.692 53.0192 154.873 53.2009 155.115 53.2009H161.4V55.7237H158.459C158.217 55.7237 158.036 55.9053 158.036 56.1475C158.036 56.3897 158.217 56.5713 158.459 56.5713H161.4V59.518C161.4 59.7602 161.581 59.9418 161.823 59.9418C162.065 59.9418 162.246 59.7602 162.246 59.518V56.5713H165.006L169.458 61.0317H163.757C163.515 61.0317 163.334 61.2133 163.334 61.4555C163.334 61.6977 163.515 61.8793 163.757 61.8793H170.284L172.802 64.4021H167.101C166.879 64.4021 166.718 64.5636 166.698 64.7654C166.577 64.9269 166.577 65.1691 166.718 65.3103L170.747 69.3468H167.202L162.589 64.7251C162.427 64.5636 162.166 64.5636 162.004 64.7251C161.843 64.8865 161.843 65.1489 162.004 65.3103L166.033 69.3468H159.748L157.794 67.3891L159.869 65.3103C160.03 65.1489 160.03 64.8865 159.869 64.7251C159.708 64.5636 159.446 64.5636 159.285 64.7251L157.21 66.8038L155.135 64.7251C154.974 64.5636 154.712 64.5636 154.531 64.7251C154.37 64.8865 154.37 65.1489 154.531 65.3103L156.606 67.3891L154.833 69.1652L150.381 64.7049C150.22 64.5434 149.958 64.5434 149.797 64.7049C149.636 64.8663 149.636 65.1287 149.797 65.2902L153.826 69.3266H151.67C151.469 68.1964 150.482 67.3488 149.313 67.3488C147.943 67.4093 146.876 68.4992 146.876 69.811ZM159.023 50.0322C158.419 50.6377 157.432 50.6377 156.807 50.0322C156.183 49.4268 156.203 48.4378 156.807 47.8122C157.109 47.5094 157.492 47.348 157.915 47.348C158.338 47.348 158.721 47.5094 159.023 47.8122C159.627 48.4176 159.627 49.4066 159.023 50.0322ZM162.246 53.8467L164.16 55.764H162.246V53.8467ZM164.764 55.1788L162.85 53.2614H164.764V55.1788ZM198.064 48.9222C198.064 48.4984 198.225 48.1149 198.527 47.8122C198.829 47.5094 199.212 47.348 199.635 47.348C200.058 47.348 200.441 47.5094 200.743 47.8122C201.347 48.4176 201.347 49.4066 200.743 50.0322C200.138 50.6377 199.151 50.6377 198.527 50.0322C198.225 49.7295 198.064 49.346 198.064 48.9222ZM193.39 55.7842L195.304 53.8669V55.7842H193.39ZM192.786 53.2614H194.699L192.786 55.1788V53.2614ZM206.706 69.811C206.706 68.9432 207.411 68.2368 208.277 68.2368C209.143 68.2368 209.848 68.9432 209.848 69.811C209.848 70.6789 209.143 71.3853 208.277 71.3853C207.411 71.3853 206.706 70.6789 206.706 69.811ZM199.01 70.2349H201.73L200.38 71.5871L199.01 70.2349ZM199.01 69.3872L200.36 68.035L201.71 69.3872H199.01ZM198.064 90.72C198.064 90.2962 198.225 89.9127 198.527 89.61C198.829 89.3073 199.212 89.1458 199.635 89.1458C200.058 89.1458 200.441 89.3073 200.743 89.61C201.347 90.2155 201.347 91.2044 200.743 91.8301C200.159 92.4154 199.131 92.4154 198.527 91.8301C198.225 91.5273 198.064 91.1439 198.064 90.72ZM195.304 85.7753L193.39 83.858H195.304V85.7753ZM192.786 84.4433L194.699 86.3606H192.786V84.4433ZM159.023 91.8301C158.439 92.4154 157.411 92.4154 156.807 91.8301C156.203 91.2246 156.203 90.2357 156.807 89.61C157.109 89.3073 157.492 89.1458 157.915 89.1458C158.338 89.1458 158.721 89.3073 159.023 89.61C159.627 90.2155 159.627 91.2044 159.023 91.8301ZM164.16 83.858L162.246 85.7753V83.858H164.16ZM164.764 86.3808H162.85L164.764 84.4635V86.3808ZM177.758 69.3872H171.956L167.846 65.27H173.648L177.758 69.3872ZM178.362 62.9894V68.8019L174.252 64.6847V58.8721L178.362 62.9894ZM178.362 46.8232V49.5479L177.012 48.1956L178.362 46.8232ZM179.188 49.5479V46.8232L180.538 48.1755L179.188 49.5479ZM183.297 64.6847L179.188 68.8019V62.9894L183.297 58.8721V64.6847ZM185.594 69.3872H179.792L183.902 65.27H189.703L185.594 69.3872ZM179.792 70.2349H185.594L189.703 74.3521H183.902L179.792 70.2349ZM179.188 76.6529V70.8403L183.297 74.9576V80.7701L179.188 76.6529ZM179.188 92.819V90.0944L180.538 91.4466L179.188 92.819ZM178.765 97.8041C179.631 97.8041 180.336 98.5105 180.336 99.3783C180.336 100.246 179.631 100.953 178.765 100.953C177.899 100.953 177.194 100.246 177.194 99.3783C177.214 98.5105 177.919 97.8041 178.765 97.8041ZM178.362 90.0944V92.819L177.012 91.4668L178.362 90.0944ZM177.214 40.2639C177.214 39.3961 177.919 38.6897 178.785 38.6897C179.651 38.6897 180.356 39.3961 180.356 40.2639C180.356 41.1318 179.651 41.8382 178.785 41.8382C177.919 41.8382 177.214 41.1318 177.214 40.2639ZM174.252 74.9576L178.362 70.8403V76.6529L174.252 80.7701V74.9576ZM171.956 70.2349H177.758L173.648 74.3521H167.846L171.956 70.2349ZM155.82 70.2349H158.539L157.19 71.5871L155.82 70.2349ZM155.82 69.3872L157.17 68.035L158.519 69.3872H155.82ZM147.702 69.811C147.702 68.9432 148.407 68.2368 149.273 68.2368C150.139 68.2368 150.844 68.9432 150.844 69.811C150.844 70.6789 150.139 71.3853 149.273 71.3853C148.407 71.3853 147.702 70.6789 147.702 69.811Z" fill="#E00909"/>
<path d="M23.6902 127.916C23.6902 130.439 25.745 132.498 28.2631 132.498C30.7812 132.498 32.836 130.439 32.836 127.916C32.836 125.394 30.7812 123.335 28.2631 123.335C25.745 123.335 23.6902 125.394 23.6902 127.916Z" fill="#0063F8"/>
<path d="M206.565 133.547C208.534 133.547 210.13 131.948 210.13 129.975C210.13 128.002 208.534 126.403 206.565 126.403C204.595 126.403 202.999 128.002 202.999 129.975C202.999 131.948 204.595 133.547 206.565 133.547Z" fill="#0063F8"/>
<path d="M226.367 112.134C226.367 112.134 227.193 112.174 228.563 112.416C229.953 112.638 231.887 113.223 234.022 114.253C236.157 115.262 238.474 116.937 240.307 119.097C241.314 120.307 242.1 121.478 242.704 122.85C243.007 123.537 243.329 124.243 243.51 124.99L243.853 126.1L244.054 127.23C244.618 130.257 244.417 133.406 243.671 136.211C242.906 139.017 241.717 141.499 240.307 143.376C239.663 144.365 238.897 145.132 238.293 145.879C237.608 146.545 237.003 147.15 236.46 147.594C235.331 148.462 234.687 148.946 234.687 148.946C234.687 148.946 235.432 148.603 236.742 148.018C237.346 147.655 238.091 147.17 238.937 146.605C239.683 145.939 240.65 145.253 241.415 144.264C243.047 142.367 244.658 139.804 245.505 136.736C246.391 133.688 246.592 130.217 245.928 126.887L245.666 125.636L245.263 124.425C245.021 123.617 244.638 122.85 244.276 122.104C243.53 120.59 242.483 119.197 241.476 118.128C239.28 115.746 236.681 114.333 234.385 113.405C232.068 112.497 229.993 112.255 228.583 112.154C227.173 112.073 226.367 112.134 226.367 112.134Z" fill="#0063F8"/>
<path d="M240.569 134.435C240.569 134.435 240.126 134.032 239.3 133.345C238.454 132.679 237.144 131.852 235.412 131.186C233.68 130.52 231.544 129.975 229.207 129.874C226.871 129.713 224.353 130.035 221.935 130.722C219.538 131.468 217.221 132.639 215.388 134.112C213.515 135.565 212.145 137.301 211.077 138.815C209.989 140.329 209.365 141.721 208.881 142.67C208.458 143.659 208.217 144.204 208.217 144.204C208.217 144.204 208.599 143.739 209.264 142.892C209.889 142.044 210.876 140.894 212.044 139.562C213.212 138.23 214.743 136.837 216.496 135.586C218.269 134.355 220.303 133.285 222.519 132.619C224.715 131.933 227.012 131.549 229.187 131.468C231.363 131.388 233.438 131.569 235.13 132.034C236.822 132.498 238.232 133.022 239.139 133.567C240.086 134.072 240.569 134.435 240.569 134.435Z" fill="#0063F8"/>
<path d="M248.667 148.684C248.667 148.684 248.466 149.249 248.123 150.258C247.781 151.247 247.217 152.66 246.471 154.275C245.726 155.889 244.679 157.706 243.349 159.421C242.04 161.137 240.408 162.832 238.595 164.225C236.822 165.657 234.767 166.626 232.753 167.312C230.718 167.938 228.724 168.362 226.971 168.402C225.239 168.443 223.748 168.402 222.721 168.221C221.673 168.12 221.069 167.978 221.069 167.978C221.069 167.978 221.593 168.281 222.58 168.745C223.567 169.169 225.058 169.694 226.931 169.855C228.784 170.037 231.041 169.997 233.337 169.371C235.634 168.766 237.991 167.615 239.965 166.001C241.899 164.366 243.571 162.469 244.799 160.471C246.048 158.473 246.794 156.414 247.358 154.678C247.922 152.922 248.164 151.429 248.385 150.379C248.567 149.269 248.667 148.684 248.667 148.684Z" fill="#0063F8"/>
<path d="M6.44635 118.794C6.44635 118.794 6.32549 119.218 6.08375 119.944C5.8823 120.671 5.53984 121.72 5.2981 123.012C5.03622 124.304 4.73405 125.797 4.59303 127.452C4.43187 129.107 4.47216 130.883 4.67361 132.679C4.95564 134.455 5.45926 136.211 6.20462 137.765C7.01041 139.279 7.9975 140.571 9.02489 141.459C9.48822 141.963 10.0321 142.266 10.4955 142.569C10.9386 142.871 11.3818 143.073 11.7243 143.235C12.4294 143.517 12.8524 143.679 12.8524 143.679C12.8524 143.679 12.5301 143.396 11.9459 142.892C11.6437 142.67 11.3012 142.367 10.9789 141.963C10.6365 141.58 10.2134 141.196 9.85082 140.692C9.00474 139.784 8.4004 138.452 7.75576 137.079C7.21186 135.646 6.76867 134.072 6.50679 132.437C6.26505 130.802 6.12404 129.127 6.0636 127.533C6.02331 125.898 6.00317 124.384 6.10389 123.113C6.18447 121.821 6.24491 120.752 6.32549 119.985C6.40606 119.238 6.44635 118.794 6.44635 118.794Z" fill="#0063F8"/>
<path d="M1.43029 127.735C1.43029 127.735 1.26913 127.815 0.966961 127.957C0.725224 128.199 0.322328 128.623 0.201459 129.208C0.0604459 129.793 -0.0201333 130.479 1.15093e-05 131.186C0.0201563 131.892 0.141025 132.639 0.302183 133.345C0.483486 134.072 0.705079 134.758 0.966961 135.384C1.2087 136.03 1.55116 136.575 1.7929 137.059C2.03464 137.543 2.33681 137.907 2.51811 138.189C2.71956 138.452 2.82028 138.613 2.82028 138.613C2.82028 138.613 2.82028 138.431 2.82028 138.088C2.80014 137.765 2.80014 137.281 2.69941 136.756C2.59869 136.231 2.53825 135.586 2.39724 134.94C2.27637 134.294 2.07492 133.608 1.91377 132.942C1.73246 132.316 1.59145 131.751 1.36986 130.984C1.24899 130.379 1.04754 129.773 1.04754 129.289C1.00725 128.784 1.0274 128.401 1.12812 128.118C1.28928 127.876 1.43029 127.735 1.43029 127.735Z" fill="#0063F8"/>
<path d="M203.2 130.903C203.2 130.903 203.241 130.58 203.342 129.975C203.442 129.369 203.563 128.461 203.906 127.331C204.53 125.071 205.839 121.801 208.559 118.41C211.258 115.1 215.449 111.548 221.089 109.893C221.794 109.692 222.519 109.55 223.245 109.369C223.99 109.268 224.735 109.167 225.481 109.046C226.206 109.026 226.951 109.005 227.717 108.985C228.543 109.066 229.469 109.066 230.215 109.187C233.216 109.631 236.54 110.822 239.461 112.679C242.422 114.535 245.061 117.179 247.096 120.287C249.03 123.456 250.38 127.129 250.42 130.964C250.682 138.613 246.149 146.787 239.078 151.045C237.326 152.135 235.392 152.902 233.418 153.387L232.672 153.568C232.592 153.588 232.33 153.649 232.41 153.629L231.967 153.689C231.363 153.79 230.738 153.871 230.315 153.891C229.389 153.992 228.24 153.992 227.193 153.952C222.902 153.75 218.511 152.478 214.381 150.5C212.286 149.532 210.352 148.341 208.136 147.009C206.041 145.737 203.966 144.426 201.871 143.073C197.701 140.369 193.551 137.523 189.401 134.637C181.061 128.946 172.701 123.052 164.019 117.845C155.498 112.679 146.795 107.532 137.428 104.182C132.754 102.507 127.899 101.275 122.903 101.033C117.928 100.771 112.73 101.78 108.46 104.222C103.786 107.189 101.248 111.629 100.321 116.291C99.8779 118.612 99.898 120.994 100.402 123.254C100.522 123.819 100.704 124.364 100.865 124.909L100.905 125.01L100.986 125.212L101.046 125.373L101.187 125.716L101.469 126.382C101.731 126.907 102.013 127.452 102.295 127.957C102.597 128.421 102.9 128.885 103.222 129.329C105.861 132.821 109.568 135 113.314 135.868C115.188 136.312 117.122 136.413 118.935 136.171C119.801 136.05 120.808 135.848 121.554 135.606C122.46 135.323 123.226 135 123.991 134.597C127.013 133.043 129.309 130.439 130.236 127.654C131.183 124.727 130.8 121.942 129.712 119.783C128.604 117.603 126.63 116.291 124.898 115.867C123.125 115.403 121.554 115.625 120.405 116.029C118.069 116.877 117.484 118.249 117.444 118.168C117.464 118.249 118.21 116.977 120.506 116.412C121.614 116.15 123.105 116.11 124.636 116.695C126.167 117.26 127.658 118.531 128.383 120.429C129.189 122.265 129.249 124.748 128.342 126.867C127.375 129.127 125.361 130.964 122.803 132.034C120.325 133.103 117.162 133.285 114.281 132.377C111.36 131.468 108.56 129.551 106.727 126.847L106.082 125.817L105.599 124.808L105.357 124.122L105.236 123.779L105.176 123.597L105.156 123.557C105.236 123.759 105.176 123.597 105.176 123.617L105.156 123.537C105.075 123.133 104.934 122.75 104.894 122.346C104.632 120.711 104.713 118.996 105.116 117.3C105.539 115.625 106.264 113.97 107.331 112.537C108.339 111.145 109.829 109.833 111.099 109.106C117.928 105.635 126.771 107.128 135.131 110.418C143.592 113.748 151.811 118.774 160.252 124.041C168.612 129.208 176.811 135.041 185.151 140.833C189.341 143.699 193.571 146.565 197.882 149.31C200.038 150.682 202.234 152.034 204.429 153.346C206.524 154.577 208.881 155.97 211.339 157.08C216.194 159.32 221.512 160.834 227.012 160.975C228.402 160.995 229.711 160.975 231.182 160.773C231.947 160.693 232.531 160.592 233.116 160.491L233.559 160.41C233.941 160.329 233.962 160.309 234.163 160.269L235.17 160.006C237.85 159.28 240.388 158.17 242.624 156.676C251.669 150.844 256.745 140.45 255.96 130.641C255.617 125.716 253.663 121.256 251.145 117.583C248.506 113.97 245.243 111.064 241.697 109.026C238.091 107.007 234.344 105.877 230.477 105.615C229.53 105.534 228.724 105.615 227.878 105.595C226.83 105.655 226.045 105.776 225.138 105.877C224.272 106.079 223.426 106.24 222.62 106.442C221.814 106.705 221.029 106.947 220.263 107.249C214.139 109.651 210.11 113.869 207.532 117.563C205.054 121.397 204.047 124.869 203.644 127.23C203.402 128.421 203.362 129.329 203.342 129.935C203.221 130.58 203.2 130.903 203.2 130.903Z" fill="#0063F8"/>
<path d="M203.2 148.623C203.2 148.623 203.241 148.301 203.321 147.695C203.402 147.09 203.503 146.181 203.825 145.031C204.389 142.75 205.618 139.42 208.297 135.929C210.976 132.518 215.106 128.804 220.867 126.968C221.593 126.746 222.318 126.584 223.063 126.382C223.829 126.261 224.594 126.12 225.38 125.999C226.145 125.959 227.012 125.898 227.737 125.878C228.563 125.938 229.449 125.918 230.275 126.039C233.498 126.423 236.923 127.614 240.025 129.511C243.127 131.408 245.928 134.112 248.123 137.362C250.198 140.651 251.709 144.526 251.83 148.623C252.233 156.797 247.559 165.536 239.985 170.199C236.258 172.56 231.685 173.65 227.153 173.468C222.56 173.286 217.946 171.954 213.615 169.896C205.014 165.476 196.633 159.643 188.334 153.931C179.994 148.2 171.674 142.347 163.072 137.14C154.571 131.953 145.989 126.826 136.844 123.496C132.291 121.821 127.577 120.59 122.803 120.348C118.048 120.045 113.153 120.953 109.104 123.214C100.724 128.421 98.9109 139.864 104.068 146.484C106.505 149.774 109.991 151.893 113.536 152.781C117.122 153.669 120.748 153.225 123.669 151.752C126.57 150.319 128.806 147.897 129.732 145.253C130.679 142.528 130.357 139.824 129.35 137.745C128.342 135.626 126.489 134.334 124.797 133.87C123.085 133.386 121.534 133.567 120.405 133.91C118.069 134.698 117.464 136.03 117.424 135.949C117.444 136.03 118.149 134.738 120.466 134.092C121.594 133.789 123.085 133.709 124.676 134.254C126.268 134.778 127.859 136.05 128.685 138.028C129.551 139.945 129.692 142.508 128.786 144.829C127.839 147.211 125.744 149.249 123.065 150.44C120.426 151.651 117.122 151.933 113.999 151.005C110.877 150.117 107.835 148.119 105.8 145.233C105.297 144.486 104.874 143.739 104.531 142.972C104.149 142.024 103.907 141.277 103.746 140.349C103.423 138.573 103.484 136.675 103.907 134.839C104.692 131.166 107.15 127.593 110.434 125.696C114.06 123.839 118.29 123.133 122.641 123.476C126.993 123.799 131.384 125.03 135.715 126.665C144.398 130.015 152.738 135.061 161.199 140.308C169.639 145.495 177.878 151.328 186.218 157.1C190.409 159.966 194.619 162.832 198.89 165.557C201.025 166.929 203.2 168.261 205.376 169.573C207.511 170.824 209.768 172.176 212.125 173.246C216.798 175.426 221.895 176.879 227.092 177.02C228.402 177.04 229.651 177.02 231 176.859C231.685 176.798 232.269 176.697 232.874 176.596L233.317 176.516L233.841 176.395L234.788 176.152C237.285 175.486 239.683 174.457 241.798 173.064C250.359 167.615 255.295 157.786 254.63 148.523C254.368 143.86 252.555 139.602 250.178 136.07C247.7 132.578 244.598 129.733 241.173 127.755C237.729 125.777 234.103 124.627 230.436 124.324C229.53 124.223 228.704 124.283 227.858 124.263C226.911 124.304 226.105 124.425 225.239 124.505C224.413 124.687 223.587 124.828 222.781 125.01C221.996 125.252 221.21 125.474 220.465 125.737C214.461 127.957 210.392 132.013 207.773 135.606C205.235 139.34 204.147 142.75 203.704 145.092C203.442 146.262 203.382 147.17 203.321 147.776C203.221 148.321 203.2 148.623 203.2 148.623Z" fill="#0063F8"/>
<path d="M111.723 151.469C111.723 151.469 109.628 149.774 105.941 146.787C102.174 143.921 96.977 139.562 90.3897 134.839C83.7822 130.136 76.1876 124.445 67.6261 118.975C63.3755 116.211 58.8228 113.365 53.7463 111.003C48.7101 108.662 43.0293 106.805 37.0463 106.462C31.1237 106.16 24.8184 107.27 19.5404 110.539C14.2424 113.789 10.294 119.056 9.0853 125.05C8.78312 126.504 8.66225 128.138 8.72269 129.511C8.80327 131.186 9.06515 132.538 9.50834 133.971C10.3746 136.756 11.8653 139.239 13.8395 141.217C15.7734 143.174 18.3116 144.627 20.7894 145.192C23.5291 145.859 25.9666 145.616 28.243 144.991C32.7756 143.739 36.2203 140.046 36.9254 136.353C37.711 132.417 36.3815 129.41 34.9915 127.311C33.4605 125.272 31.6877 124.283 30.4589 123.88C29.2301 123.456 28.525 123.496 28.5452 123.456C28.525 123.496 29.2301 123.597 30.2978 124.223C31.3654 124.828 32.7756 126.08 33.7224 128.078C34.7296 129.975 35.2131 132.942 34.226 135.424C33.2188 138.129 30.5194 140.187 27.1955 140.873C25.5839 141.196 23.6701 141.116 22.1996 140.591C20.4671 140.006 19.057 138.936 17.8483 137.483C16.6799 136.05 15.8137 134.254 15.3906 132.336C15.169 131.428 15.0683 130.318 15.0884 129.511C15.1086 128.401 15.2295 127.513 15.4712 126.504C16.4986 122.588 19.3994 118.895 23.2068 116.695C27.0343 114.434 31.8288 113.587 36.6232 113.89C41.4378 114.091 46.2121 115.544 50.8253 117.543C55.4385 119.561 59.8703 122.084 64.2417 124.566C72.9443 129.591 81.2238 134.112 88.1536 138.27C95.0834 142.407 101.107 145.536 105.176 147.917C109.346 150.178 111.723 151.469 111.723 151.469Z" fill="#0063F8"/>
<path d="M102.597 139.743C102.597 139.743 101.651 139.138 100.16 137.886C98.6491 136.655 96.695 134.657 94.3783 132.235C92.0617 129.793 89.2011 127.069 85.978 124.364C82.7548 121.64 79.1489 118.935 75.402 116.453C71.6349 113.97 67.7671 111.669 63.9799 109.792C60.2128 107.875 56.5666 106.402 53.424 105.211C50.2814 104.02 47.582 103.233 45.6884 102.688C43.7948 102.204 42.707 101.921 42.707 101.921C42.707 101.921 43.7545 102.325 45.5675 103.052C47.4007 103.738 49.9591 104.868 53.001 106.22C56.063 107.572 59.5279 109.328 63.1942 111.306C66.8606 113.284 70.7082 115.504 74.4149 117.926C78.1819 120.328 81.7879 122.911 85.0916 125.454C88.3954 128.017 91.3969 130.5 93.8143 132.821C96.2518 135.121 98.4073 136.938 99.9987 138.108C101.61 139.218 102.597 139.743 102.597 139.743Z" fill="#0063F8"/>
<path d="M95.9094 127.452C95.9094 127.452 95.5468 127.028 94.882 126.261C94.2172 125.535 93.2704 124.445 92.0214 123.274C90.7926 122.084 89.3422 120.731 87.6903 119.339C86.0586 117.966 84.2254 116.594 82.3922 115.242C80.5187 113.93 78.6251 112.658 76.8121 111.569C74.9991 110.438 73.2263 109.53 71.7356 108.703C70.2449 107.875 68.9355 107.31 68.0491 106.846C67.1426 106.422 66.6188 106.2 66.6188 106.2C66.6188 106.2 67.0822 106.543 67.8678 107.149C68.6736 107.714 69.8017 108.582 71.2118 109.55C72.622 110.499 74.2134 111.69 75.966 112.86C77.7589 114.091 79.5719 115.343 81.4253 116.594C83.2786 117.865 85.1117 119.177 86.8241 120.408C88.5162 121.66 90.1278 122.81 91.4372 123.88C92.7668 124.929 93.8949 125.797 94.6402 126.443C95.4662 127.089 95.9094 127.452 95.9094 127.452Z" fill="#0063F8"/>
<path d="M133.177 130.722C133.177 130.722 134.245 131.267 136.118 132.235C137.992 133.204 140.631 134.637 143.794 136.373C146.956 138.108 150.582 140.248 154.41 142.609C158.237 144.97 162.286 147.574 166.235 150.278C170.203 152.983 174.011 155.869 177.596 158.614C181.182 161.359 184.607 163.821 187.548 165.94C190.489 168.059 193.108 169.573 194.961 170.622C196.815 171.632 197.902 172.156 197.902 172.156C197.902 172.156 196.915 171.45 195.203 170.219C193.471 169.028 191.093 167.171 188.233 164.991C185.352 162.812 182.169 160.087 178.624 157.262C175.099 154.436 171.251 151.469 167.242 148.785C163.193 146.121 159.083 143.598 155.135 141.378C151.187 139.138 147.42 137.241 144.176 135.646C140.933 134.052 138.153 132.861 136.219 132.013C134.285 131.186 133.177 130.722 133.177 130.722Z" fill="#0063F8"/>
<path d="M209.909 160.41C209.909 160.41 208.257 159.805 205.618 158.311C202.939 156.858 199.393 154.355 195.002 151.469C190.55 148.704 185.675 145.112 180.417 141.217C177.778 139.279 175.038 137.281 172.198 135.343C169.337 133.446 166.436 131.509 163.535 129.571C157.714 125.716 151.751 122.023 145.929 118.996C140.127 115.888 134.426 113.526 129.37 112.053C126.832 111.306 124.495 110.761 122.359 110.458C120.224 110.176 118.33 110.176 116.799 110.297C115.268 110.458 114.08 110.721 113.294 110.923C112.509 111.124 112.086 111.286 112.086 111.286C112.086 111.286 112.509 111.185 113.314 111.044C114.12 110.902 115.309 110.761 116.82 110.741C119.861 110.6 124.112 111.488 129.048 113.102C134.003 114.677 139.543 117.179 145.264 120.247C150.945 123.416 156.787 127.19 162.629 130.984C165.55 132.881 168.471 134.778 171.352 136.635C174.212 138.512 176.952 140.45 179.631 142.327C184.949 146.101 190.066 149.532 194.579 152.176C199.01 154.92 202.757 157.221 205.497 158.553C208.257 159.885 209.909 160.41 209.909 160.41Z" fill="#0063F8"/>
<path d="M124.354 138.068C124.354 138.068 124.414 138.351 124.495 138.855C124.575 139.097 124.575 139.42 124.555 139.743C124.555 140.066 124.535 140.429 124.434 140.833C124.334 141.64 123.83 142.488 123.306 143.295C122.702 144.082 121.977 144.849 121.151 145.495C120.305 146.121 119.398 146.625 118.472 146.969C117.565 147.251 116.658 147.493 115.873 147.413C115.47 147.413 115.107 147.372 114.785 147.291C114.443 147.251 114.161 147.17 113.939 147.029C113.455 146.827 113.194 146.726 113.194 146.726C113.194 146.726 113.395 146.948 113.737 147.332C113.919 147.534 114.161 147.736 114.503 147.937C114.825 148.159 115.208 148.381 115.671 148.502C116.578 148.805 117.766 148.846 118.935 148.583C120.123 148.321 121.231 147.675 122.259 146.928C123.206 146.101 124.052 145.132 124.575 144.042C125.059 142.952 125.321 141.842 125.26 140.914C125.28 140.45 125.2 140.026 125.079 139.642C124.998 139.259 124.878 138.976 124.737 138.754C124.475 138.33 124.354 138.068 124.354 138.068Z" fill="#0063F8"/>
<path d="M125.462 122.427C125.462 122.427 125.421 122.669 125.321 123.093C125.24 123.517 124.998 124.021 124.656 124.606C124.334 125.192 123.77 125.777 123.165 126.342C122.561 126.907 121.876 127.472 121.171 127.977C120.446 128.461 119.7 128.925 118.955 129.248C118.21 129.571 117.525 129.894 116.86 129.975C116.215 130.096 115.631 130.136 115.228 130.056C114.805 129.995 114.563 129.955 114.563 129.955C114.563 129.955 114.765 130.116 115.107 130.379C115.47 130.601 116.074 130.964 116.86 131.065C117.646 131.186 118.613 131.186 119.539 130.883C120.506 130.641 121.413 130.096 122.259 129.531C123.065 128.865 123.85 128.179 124.354 127.331C124.898 126.524 125.22 125.656 125.421 124.909C125.623 124.183 125.603 123.476 125.562 123.073C125.502 122.669 125.462 122.427 125.462 122.427Z" fill="#0063F8"/>
<path d="M49.0928 127.17C49.0928 127.17 49.7979 127.533 50.9864 128.259C52.2153 128.885 53.847 130.157 55.9622 131.246C58.0976 132.296 60.5351 133.729 63.2949 134.899C66.0346 136.11 69.157 137.039 72.1385 137.947C75.1803 138.774 78.2423 139.4 81.1432 139.824C84.0239 140.329 86.824 140.389 89.1407 140.813C91.4573 141.156 93.4919 141.217 94.8618 141.439C96.2518 141.56 97.0374 141.701 97.0374 141.701C97.0374 141.701 96.3525 141.297 95.1438 140.571C93.915 139.925 92.2027 138.795 90.027 137.826C87.8313 136.918 85.3535 135.505 82.5533 134.536C79.7733 133.466 76.7718 132.558 73.7501 131.812C70.6679 131.145 67.7469 130.459 64.8863 129.894C62.0459 129.309 59.2861 128.946 56.9896 128.441C54.6729 127.977 52.6182 127.896 51.2685 127.573C49.8583 127.351 49.0928 127.17 49.0928 127.17Z" fill="#0063F8"/>
<path d="M187.528 122.709C187.528 122.709 186.803 122.084 185.413 121.095C184.003 120.146 181.988 118.713 179.389 117.361C176.791 116.009 173.729 114.414 170.485 112.8C167.302 111.165 163.838 109.51 160.05 108.198C156.324 106.927 152.496 106.039 148.87 105.433C145.264 104.767 141.839 104.545 138.939 104.262C136.038 103.96 133.58 104.02 131.868 103.96C130.155 103.98 129.189 103.919 129.189 103.919C129.189 103.919 130.115 104.222 131.707 104.888C133.318 105.473 135.574 106.442 138.314 107.31C141.074 108.198 144.217 109.409 147.621 110.479C151.025 111.589 154.591 112.739 158.177 113.91C161.722 114.939 165.369 116.271 168.995 116.977C172.56 117.765 175.864 118.39 178.604 119.258C181.343 120.086 183.64 120.812 185.151 121.539C185.916 121.882 186.521 122.164 186.924 122.386C187.306 122.588 187.528 122.709 187.528 122.709Z" fill="#0063F8"/>
</g>
<defs>
<clipPath id="clip0_1137_227">
<rect width="256" height="177" fill="white"/>
</clipPath>
</defs>
</svg>
