<svg width="694" height="97" viewBox="0 0 694 97" fill="none" xmlns="http://www.w3.org/2000/svg">
<g clip-path="url(#clip0_1137_133)">
<path d="M394.2 44.4164C392.429 44.4164 390.937 45.703 390.638 47.3998H387.393L393.454 41.3397C393.697 41.0973 393.697 40.687 393.454 40.4446C393.212 40.2022 392.802 40.2022 392.559 40.4446L385.864 47.1388L383.179 44.4537L386.312 41.321C386.554 41.0786 386.554 40.6684 386.312 40.426C386.069 40.1836 385.659 40.1836 385.417 40.426L382.302 43.5773L379.169 40.4446C378.927 40.2022 378.517 40.2022 378.274 40.4446C378.032 40.687 378.032 41.0973 378.274 41.3397L381.407 44.4723L378.461 47.4185H368.987L375.048 41.3583C375.29 41.1159 375.29 40.7057 375.048 40.4633C374.805 40.2209 374.395 40.2209 374.153 40.4633L367.197 47.4185H361.844L367.905 41.3583C368.129 41.1346 368.148 40.7803 367.943 40.5192C367.905 40.2022 367.644 39.9598 367.327 39.9598H358.749L362.534 36.1745H372.381C372.735 36.1745 373.015 35.8948 373.015 35.5406C373.015 35.1863 372.735 34.9066 372.381 34.9066H363.803L370.498 28.2124H374.656V32.6317C374.656 32.986 374.936 33.2657 375.29 33.2657C375.645 33.2657 375.924 32.986 375.924 32.6317V28.2124H380.344C380.699 28.2124 380.978 27.9327 380.978 27.5784C380.978 27.2241 380.699 26.9444 380.344 26.9444H375.924V23.1592H385.398C385.752 23.1592 386.032 22.8795 386.032 22.5252C386.032 22.1709 385.752 21.8912 385.398 21.8912H376.82L379.113 19.5977C379.729 20.0265 380.456 20.2503 381.183 20.2503C382.116 20.2503 383.03 19.896 383.738 19.1874C385.156 17.7703 385.156 15.4767 383.738 14.0596C382.377 12.6984 379.99 12.6984 378.61 14.0596C377.36 15.3089 377.23 17.2668 378.2 18.684L375.906 20.9775V12.4C375.906 12.0458 375.626 11.7661 375.272 11.7661C374.917 11.7661 374.638 12.0458 374.638 12.4V21.8725H370.852V17.4719C370.852 17.1176 370.572 16.8379 370.218 16.8379C369.864 16.8379 369.584 17.1176 369.584 17.4719V21.8912H365.164C364.81 21.8912 364.53 22.1709 364.53 22.5252C364.53 22.8795 364.81 23.1592 365.164 23.1592H369.584V27.3174L362.889 34.0115V25.4341C362.889 25.0798 362.609 24.8001 362.255 24.8001C361.9 24.8001 361.621 25.0798 361.621 25.4341V35.2795L357.835 39.0648V30.4873C357.835 30.1703 357.593 29.9093 357.276 29.872C357.033 29.6855 356.679 29.6855 356.436 29.9093L350.375 35.9694V30.6178L357.331 23.6626C357.574 23.4202 357.574 23.01 357.331 22.7676C357.089 22.5252 356.679 22.5252 356.436 22.7676L350.375 28.8278V19.3552L353.322 16.4091L356.455 19.5417C356.586 19.6722 356.735 19.7282 356.903 19.7282C357.07 19.7282 357.22 19.6722 357.35 19.5417C357.593 19.2993 357.593 18.8891 357.35 18.6467L354.217 15.514L357.35 12.3814C357.593 12.139 357.593 11.7288 357.35 11.4864C357.108 11.2439 356.697 11.2439 356.455 11.4864L353.322 14.619L350.637 11.9339L357.331 5.23972C357.574 4.99731 357.574 4.58708 357.331 4.34468C357.089 4.10227 356.679 4.10227 356.436 4.34468L350.375 10.4048V7.17897C352.072 6.88062 353.359 5.40754 353.359 3.61746C353.359 1.62226 351.737 0 349.741 0C347.746 0 346.123 1.62226 346.123 3.61746C346.123 5.38889 347.41 6.88062 349.107 7.17897V10.4235L343.046 4.36332C342.804 4.12091 342.394 4.12091 342.151 4.36332C341.909 4.60573 341.909 5.01596 342.151 5.25836L348.846 11.9525L346.161 14.6376L343.028 11.505C342.785 11.2626 342.375 11.2626 342.133 11.505C341.89 11.7474 341.89 12.1576 342.133 12.4L345.266 15.5327L342.17 18.6467C341.927 18.8891 341.927 19.2993 342.17 19.5417C342.412 19.7841 342.823 19.7841 343.065 19.5417L346.198 16.4091L349.145 19.3552V28.8278L343.084 22.7676C342.841 22.5252 342.431 22.5252 342.189 22.7676C341.946 23.01 341.946 23.4202 342.189 23.6626L349.145 30.6178V35.9694L343.084 29.9093C342.86 29.6855 342.506 29.6669 342.245 29.872C341.927 29.9093 341.685 30.1703 341.685 30.4873V39.0648L337.899 35.2795V25.4341C337.899 25.0798 337.62 24.8001 337.265 24.8001C336.911 24.8001 336.631 25.0798 336.631 25.4341V34.0115L329.936 27.3174V23.1592H334.356C334.71 23.1592 334.99 22.8795 334.99 22.5252C334.99 22.1709 334.71 21.8912 334.356 21.8912H329.936V17.4719C329.936 17.1176 329.657 16.8379 329.302 16.8379C328.948 16.8379 328.668 17.1176 328.668 17.4719V21.8912H324.882V12.4187C324.882 12.0644 324.603 11.7847 324.248 11.7847C323.894 11.7847 323.614 12.0644 323.614 12.4187V20.9962L321.32 18.7026C321.749 18.1059 321.973 17.3787 321.973 16.6328C321.973 15.6632 321.6 14.7495 320.91 14.0782C319.549 12.717 317.162 12.717 315.782 14.0782C314.364 15.4954 314.364 17.7889 315.782 19.2061C316.49 19.9146 317.423 20.2689 318.337 20.2689C319.064 20.2689 319.791 20.0452 320.407 19.6163L322.7 21.9098H314.122C313.768 21.9098 313.488 22.1895 313.488 22.5438C313.488 22.8981 313.768 23.1778 314.122 23.1778H323.596V26.9631H319.176C318.821 26.9631 318.542 27.2428 318.542 27.5971C318.542 27.9514 318.821 28.2311 319.176 28.2311H323.596V32.6503C323.596 33.0046 323.875 33.2843 324.23 33.2843C324.584 33.2843 324.864 33.0046 324.864 32.6503V28.2311H329.022L335.717 34.9252H327.139C326.785 34.9252 326.505 35.2049 326.505 35.5592C326.505 35.9135 326.785 36.1932 327.139 36.1932H336.986L340.771 39.9785H332.193C331.876 39.9785 331.615 40.2209 331.577 40.5379C331.391 40.7803 331.391 41.1346 331.615 41.377L337.676 47.4371H332.323L325.367 40.4819C325.125 40.2395 324.715 40.2395 324.472 40.4819C324.23 40.7243 324.23 41.1346 324.472 41.377L330.533 47.4371H321.059L318.113 44.491L321.246 41.3583C321.488 41.1159 321.488 40.7057 321.246 40.4633C321.003 40.2209 320.593 40.2209 320.351 40.4633L317.218 43.5959L314.085 40.4633C313.842 40.2209 313.432 40.2209 313.19 40.4633C312.947 40.7057 312.947 41.1159 313.19 41.3583L316.323 44.491L313.637 47.1761L306.942 40.4819C306.7 40.2395 306.289 40.2395 306.047 40.4819C305.805 40.7243 305.805 41.1346 306.047 41.377L312.108 47.4371H308.863C308.565 45.7403 307.091 44.4537 305.301 44.4537C303.306 44.4537 301.683 46.0759 301.683 48.0711C301.683 50.0663 303.306 51.6886 305.301 51.6886C307.073 51.6886 308.565 50.402 308.863 48.7051H312.108L306.047 54.7653C305.805 55.0077 305.805 55.4179 306.047 55.6603C306.178 55.7909 306.327 55.8468 306.495 55.8468C306.662 55.8468 306.812 55.7909 306.942 55.6603L313.637 48.9662L316.323 51.6513L313.19 54.7839C312.947 55.0263 312.947 55.4366 313.19 55.679C313.32 55.8095 313.469 55.8654 313.637 55.8654C313.805 55.8654 313.954 55.8095 314.085 55.679L317.218 52.5463L320.351 55.679C320.481 55.8095 320.63 55.8654 320.798 55.8654C320.966 55.8654 321.115 55.8095 321.246 55.679C321.488 55.4366 321.488 55.0263 321.246 54.7839L318.113 51.6513L321.059 48.7051H330.533L324.491 54.7466C324.248 54.989 324.248 55.3993 324.491 55.6417C324.621 55.7722 324.771 55.8281 324.938 55.8281C325.106 55.8281 325.255 55.7722 325.386 55.6417L332.342 48.6865H337.694L331.633 54.7466C331.41 54.9704 331.391 55.3247 331.596 55.5857C331.633 55.9027 331.894 56.1451 332.211 56.1451H340.79L337.004 59.9304H327.158C326.803 59.9304 326.523 60.2101 326.523 60.5644C326.523 60.9187 326.803 61.1984 327.158 61.1984H335.736L329.041 67.8925H324.882V63.4733C324.882 63.119 324.603 62.8393 324.248 62.8393C323.894 62.8393 323.614 63.119 323.614 63.4733V67.8925H319.194C318.84 67.8925 318.56 68.1722 318.56 68.5265C318.56 68.8808 318.84 69.1605 319.194 69.1605H323.614V72.9458H314.141C313.786 72.9458 313.507 73.2255 313.507 73.5798C313.507 73.9341 313.786 74.2138 314.141 74.2138H322.719L320.425 76.5073C319.027 75.5563 317.013 75.6869 315.8 76.8989C315.11 77.5888 314.737 78.4839 314.737 79.4535C314.737 80.4231 315.11 81.3368 315.8 82.0081C316.49 82.698 317.386 83.0709 318.355 83.0709C319.325 83.0709 320.239 82.698 320.91 82.0081C321.6 81.3182 321.973 80.4231 321.973 79.4535C321.973 78.7076 321.731 77.9804 321.32 77.3837L323.614 75.0902V83.6676C323.614 84.0219 323.894 84.3016 324.248 84.3016C324.603 84.3016 324.882 84.0219 324.882 83.6676V74.1951H328.668V78.6144C328.668 78.9687 328.948 79.2484 329.302 79.2484C329.657 79.2484 329.936 78.9687 329.936 78.6144V74.1951H334.356C334.71 74.1951 334.99 73.9154 334.99 73.5611C334.99 73.2068 334.71 72.9271 334.356 72.9271H329.936V68.7689L336.631 62.0748V70.6523C336.631 71.0065 336.911 71.2862 337.265 71.2862C337.62 71.2862 337.899 71.0065 337.899 70.6523V60.8068L341.685 57.0215V65.599C341.685 65.916 341.927 66.177 342.245 66.2143C342.487 66.4008 342.841 66.4008 343.084 66.1771L349.145 60.1169V65.4685L342.189 72.4237C341.946 72.6661 341.946 73.0763 342.189 73.3187C342.431 73.5611 342.841 73.5611 343.084 73.3187L349.145 67.2586V76.7311L346.198 79.6772L343.065 76.5446C342.823 76.3022 342.412 76.3022 342.17 76.5446C341.927 76.787 341.927 77.1972 342.17 77.4396L345.303 80.5723L342.17 83.7049C341.927 83.9473 341.927 84.3576 342.17 84.6C342.412 84.8424 342.823 84.8424 343.065 84.6L346.198 81.4673L348.884 84.1525L342.189 90.8466C341.946 91.089 341.946 91.4992 342.189 91.7416C342.319 91.8722 342.468 91.9281 342.636 91.9281C342.804 91.9281 342.953 91.8722 343.084 91.7416L349.145 85.6815V88.926C347.448 89.2243 346.161 90.6974 346.161 92.4875C346.161 94.4827 347.783 96.105 349.779 96.105C351.774 96.105 353.397 94.4827 353.397 92.4875C353.397 90.7161 352.11 89.2243 350.413 88.926V85.6815L356.474 91.7416C356.716 91.9841 357.126 91.9841 357.369 91.7416C357.611 91.4992 357.611 91.089 357.369 90.8466L350.674 84.1525L353.359 81.4673L356.492 84.6C356.623 84.7305 356.772 84.7864 356.94 84.7864C357.108 84.7864 357.257 84.7305 357.387 84.6C357.63 84.3576 357.63 83.9473 357.387 83.7049L354.254 80.5723L357.387 77.4396C357.63 77.1972 357.63 76.787 357.387 76.5446C357.145 76.3022 356.735 76.3022 356.492 76.5446L353.359 79.6772L350.413 76.7311V67.2586L356.474 73.3187C356.604 73.4493 356.753 73.5052 356.921 73.5052C357.089 73.5052 357.238 73.4493 357.369 73.3187C357.611 73.0763 357.611 72.6661 357.369 72.4237L350.413 65.4685V60.1169L356.474 66.1771C356.604 66.3076 356.753 66.3635 356.921 66.3635C357.052 66.3635 357.182 66.3076 357.313 66.2143C357.63 66.177 357.872 65.916 357.872 65.599V57.0215L361.658 60.8068V70.6523C361.658 71.0065 361.938 71.2862 362.292 71.2862C362.646 71.2862 362.926 71.0065 362.926 70.6523V62.0748L369.621 68.7689V72.9271H365.201C364.847 72.9271 364.567 73.2068 364.567 73.5611C364.567 73.9154 364.847 74.1951 365.201 74.1951H369.621V78.6144C369.621 78.9687 369.901 79.2484 370.255 79.2484C370.609 79.2484 370.889 78.9687 370.889 78.6144V74.1951H374.675V83.6676C374.675 84.0219 374.955 84.3016 375.309 84.3016C375.663 84.3016 375.943 84.0219 375.943 83.6676V75.0902L378.237 77.3837C377.808 77.9804 377.584 78.7076 377.584 79.4535C377.584 80.4231 377.957 81.3368 378.647 82.0081C379.337 82.698 380.232 83.0709 381.202 83.0709C382.172 83.0709 383.086 82.698 383.757 82.0081C384.447 81.3182 384.82 80.4231 384.82 79.4535C384.82 78.4839 384.447 77.5702 383.757 76.8989C382.545 75.6869 380.531 75.5563 379.132 76.5073L376.838 74.2138H385.417C385.771 74.2138 386.051 73.9341 386.051 73.5798C386.051 73.2255 385.771 72.9458 385.417 72.9458H375.943V69.1605H380.363C380.717 69.1605 380.997 68.8808 380.997 68.5265C380.997 68.1722 380.717 67.8925 380.363 67.8925H375.943V63.4733C375.943 63.119 375.663 62.8393 375.309 62.8393C374.955 62.8393 374.675 63.119 374.675 63.4733V67.8925H370.516L363.821 61.1984H372.4C372.754 61.1984 373.034 60.9187 373.034 60.5644C373.034 60.2101 372.754 59.9304 372.4 59.9304H362.553L358.767 56.1451H367.346C367.663 56.1451 367.924 55.9027 367.961 55.5857C368.148 55.3433 368.148 54.989 367.924 54.7466L361.863 48.6865H367.215L374.171 55.6417C374.302 55.7722 374.451 55.8281 374.619 55.8281C374.787 55.8281 374.936 55.7722 375.067 55.6417C375.309 55.3993 375.309 54.989 375.067 54.7466L369.006 48.6865H378.479L381.426 51.6326L378.293 54.7653C378.05 55.0077 378.05 55.4179 378.293 55.6603C378.423 55.7909 378.573 55.8468 378.74 55.8468C378.908 55.8468 379.057 55.7909 379.188 55.6603L382.321 52.5277L385.454 55.6603C385.585 55.7909 385.734 55.8468 385.902 55.8468C386.069 55.8468 386.219 55.7909 386.349 55.6603C386.592 55.4179 386.592 55.0077 386.349 54.7653L383.216 51.6326L385.902 48.9475L392.597 55.6417C392.727 55.7722 392.876 55.8281 393.044 55.8281C393.212 55.8281 393.361 55.7722 393.492 55.6417C393.734 55.3993 393.734 54.989 393.492 54.7466L387.431 48.6865H390.676C390.974 50.3833 392.447 51.6699 394.238 51.6699C396.233 51.6699 397.856 50.0477 397.856 48.0525C397.818 46.0573 396.196 44.4164 394.2 44.4164ZM379.524 14.9733C379.971 14.5258 380.568 14.2834 381.183 14.2834C381.817 14.2834 382.396 14.5258 382.843 14.9733C383.757 15.887 383.757 17.3787 382.843 18.311C381.929 19.2247 380.437 19.2247 379.505 18.311C378.61 17.3787 378.61 15.887 379.524 14.9733ZM374.656 26.9444H371.766L374.656 24.0542V26.9444ZM370.871 23.1592H373.761L370.871 26.0494V23.1592ZM320.015 18.2924C319.101 19.2061 317.609 19.2061 316.677 18.2924C315.763 17.3787 315.763 15.887 316.677 14.9546C317.124 14.5071 317.721 14.2647 318.337 14.2647C318.971 14.2647 319.549 14.5071 319.996 14.9546C320.444 15.4022 320.686 15.9988 320.686 16.6142C320.705 17.2668 320.463 17.8449 320.015 18.2924ZM324.882 26.9444V24.0542L327.773 26.9444H324.882ZM328.668 26.0494L325.778 23.1592H328.668V26.0494ZM305.338 50.402C304.033 50.402 302.989 49.3391 302.989 48.0525C302.989 46.7472 304.052 45.703 305.338 45.703C306.644 45.703 307.688 46.7659 307.688 48.0525C307.688 49.3391 306.644 50.402 305.338 50.402ZM317.236 50.719L315.185 48.6678H319.269L317.236 50.719ZM315.204 47.4185L317.255 45.3674L319.306 47.4185H315.204ZM320.015 81.113C319.12 82.0081 317.572 82.0081 316.677 81.113C315.763 80.1993 315.763 78.7076 316.677 77.7753C317.124 77.3278 317.721 77.0854 318.337 77.0854C318.971 77.0854 319.549 77.3278 319.996 77.7753C320.444 78.2228 320.686 78.8195 320.686 79.4348C320.705 80.0875 320.463 80.6842 320.015 81.113ZM324.882 69.1419H327.773L324.882 72.0321V69.1419ZM328.668 72.9271H325.778L328.668 70.0369V72.9271ZM379.524 77.7939C379.971 77.3464 380.568 77.104 381.183 77.104C381.817 77.104 382.396 77.3464 382.843 77.7939C383.757 78.7076 383.757 80.1993 382.843 81.1317C381.948 82.0267 380.4 82.0267 379.505 81.1317C378.61 80.1993 378.61 78.7076 379.524 77.7939ZM374.656 69.1419V72.0321L371.766 69.1419H374.656ZM370.871 70.0369L373.761 72.9271H370.871V70.0369ZM357.481 41.2278H366.227L360.036 47.4185H351.289L357.481 41.2278ZM356.586 31.5875V40.3328L350.394 46.5235V37.7782L356.586 31.5875ZM352.445 15.5327L350.394 17.5838V13.4815L352.445 15.5327ZM347.093 15.5327L349.145 13.4815V17.5652L347.093 15.5327ZM342.953 31.5875L349.145 37.7782V46.5235L342.953 40.3328V31.5875ZM333.312 41.2278H342.058L348.249 47.4185H339.503L333.312 41.2278ZM342.058 54.8585H333.312L339.503 48.6678H348.249L342.058 54.8585ZM342.953 64.4988V55.7536L349.145 49.5629V58.3082L342.953 64.4988ZM347.093 80.5723L349.145 78.5211V82.6048L347.093 80.5723ZM352.128 92.4689C352.128 93.7741 351.065 94.8183 349.779 94.8183C348.473 94.8183 347.429 93.7555 347.429 92.4689C347.429 91.1636 348.492 90.1194 349.779 90.1194C351.065 90.1194 352.128 91.1636 352.128 92.4689ZM352.445 80.5723L350.394 82.6234V78.5398L352.445 80.5723ZM349.779 5.96694C348.473 5.96694 347.429 4.90408 347.429 3.61746C347.429 2.31219 348.492 1.26797 349.779 1.26797C351.084 1.26797 352.128 2.33083 352.128 3.61746C352.128 4.92272 351.065 5.96694 349.779 5.96694ZM356.586 64.4988L350.394 58.3082V49.5629L356.586 55.7536V64.4988ZM366.227 54.8585H357.481L351.289 48.6678H360.036L366.227 54.8585ZM382.302 50.719L380.251 48.6678H384.335L382.302 50.719ZM380.251 47.4185L382.302 45.3674L384.354 47.4185H380.251ZM394.2 50.402C392.895 50.402 391.851 49.3391 391.851 48.0525C391.851 46.7472 392.914 45.703 394.2 45.703C395.506 45.703 396.55 46.7659 396.55 48.0525C396.55 49.3391 395.506 50.402 394.2 50.402Z" fill="#0063F8"/>
<path d="M452.627 65.0769C451.527 65.0769 450.632 65.8787 450.445 66.9042H448.45L452.18 63.1749C452.329 63.0257 452.329 62.7833 452.18 62.6155C452.031 62.4663 451.788 62.4663 451.639 62.6155L447.518 66.7364L445.876 65.0955L447.797 63.1749C447.946 63.0257 447.946 62.7833 447.797 62.6155C447.648 62.4663 447.406 62.4663 447.256 62.6155L445.336 64.5361L443.415 62.6155C443.266 62.4663 443.023 62.4663 442.874 62.6155C442.725 62.7647 442.725 63.0071 442.874 63.1749L444.795 65.0955L442.986 66.9042H437.167L440.897 63.1749C441.046 63.0257 441.046 62.7833 440.897 62.6155C440.748 62.4663 440.506 62.4663 440.356 62.6155L436.086 66.8856H432.804L436.533 63.1563C436.683 63.0071 436.683 62.802 436.552 62.6528C436.533 62.4663 436.366 62.3172 436.179 62.3172H430.901L433.232 59.9863H439.275C439.499 59.9863 439.666 59.8185 439.666 59.5947C439.666 59.371 439.499 59.2032 439.275 59.2032H433.997L438.118 55.0823H440.673V57.8047C440.673 58.0284 440.841 58.1962 441.065 58.1962C441.289 58.1962 441.457 58.0284 441.457 57.8047V55.0823H444.179C444.403 55.0823 444.571 54.9144 444.571 54.6907C444.571 54.4669 444.403 54.2991 444.179 54.2991H441.457V51.9683H447.275C447.499 51.9683 447.667 51.8004 447.667 51.5767C447.667 51.3529 447.499 51.1851 447.275 51.1851H441.997L443.415 49.768C443.788 50.029 444.235 50.1782 444.683 50.1782C445.261 50.1782 445.82 49.9544 446.249 49.5255C447.126 48.6491 447.126 47.2507 446.249 46.3743C445.41 45.5352 443.937 45.5352 443.098 46.3743C442.333 47.1388 442.24 48.3508 442.855 49.2272L441.438 50.6443V45.3673C441.438 45.1436 441.27 44.9758 441.046 44.9758C440.823 44.9758 440.655 45.1436 440.655 45.3673V51.1851H438.324V48.4627C438.324 48.2389 438.156 48.0711 437.932 48.0711C437.708 48.0711 437.54 48.2389 437.54 48.4627V51.1851H434.818C434.594 51.1851 434.426 51.3529 434.426 51.5767C434.426 51.8004 434.594 51.9683 434.818 51.9683H437.54V54.5229L433.419 58.6438V53.3668C433.419 53.143 433.251 52.9752 433.027 52.9752C432.804 52.9752 432.636 53.143 432.636 53.3668V59.4083L430.305 61.7391V56.4621C430.305 56.257 430.155 56.1078 429.969 56.0892C429.82 55.9773 429.596 55.9773 429.465 56.1078L425.736 59.8372V56.5553L430.006 52.2853C430.155 52.1361 430.155 51.8937 430.006 51.7259C429.857 51.5767 429.615 51.5767 429.465 51.7259L425.736 55.4552V49.6374L427.545 47.8287L429.465 49.7493C429.54 49.8239 429.633 49.8612 429.745 49.8612C429.838 49.8612 429.95 49.8239 430.025 49.7493C430.174 49.6001 430.174 49.3577 430.025 49.1899L428.104 47.2693L430.025 45.3487C430.174 45.1995 430.174 44.9571 430.025 44.8079C429.876 44.6588 429.633 44.6588 429.484 44.8079L427.563 46.7285L425.922 45.0876L430.044 40.9667C430.193 40.8175 430.193 40.5751 430.044 40.4073C429.894 40.2581 429.652 40.2581 429.503 40.4073L425.773 44.1367V42.1415C426.817 41.955 427.601 41.0413 427.601 39.9598C427.601 38.7291 426.594 37.7408 425.381 37.7408C424.15 37.7408 423.162 38.7478 423.162 39.9598C423.162 41.06 423.964 41.955 424.99 42.1415V44.1367L421.26 40.4073C421.111 40.2581 420.868 40.2581 420.719 40.4073C420.57 40.5565 420.57 40.7989 420.719 40.9667L424.84 45.0876L423.199 46.7285L421.279 44.8079C421.129 44.6588 420.887 44.6588 420.738 44.8079C420.589 44.9571 420.589 45.1995 420.738 45.3487L422.659 47.2693L420.738 49.1899C420.589 49.3391 420.589 49.5815 420.738 49.7493C420.887 49.8985 421.129 49.8985 421.279 49.7493L423.199 47.8287L425.008 49.6374V55.4552L421.279 51.7259C421.129 51.5767 420.887 51.5767 420.738 51.7259C420.589 51.875 420.589 52.1174 420.738 52.2853L425.008 56.5553V59.8372L421.279 56.1078C421.129 55.9586 420.924 55.9586 420.775 56.0892C420.589 56.1078 420.439 56.2756 420.439 56.4621V61.7391L418.108 59.4083V53.3668C418.108 53.143 417.94 52.9752 417.717 52.9752C417.493 52.9752 417.325 53.143 417.325 53.3668V58.6438L413.204 54.5229V51.9683H415.926C416.15 51.9683 416.318 51.8004 416.318 51.5767C416.318 51.3529 416.15 51.1851 415.926 51.1851H413.204V48.4627C413.204 48.2389 413.036 48.0711 412.812 48.0711C412.588 48.0711 412.42 48.2389 412.42 48.4627V51.1851H410.089V45.3673C410.089 45.1436 409.921 44.9758 409.698 44.9758C409.474 44.9758 409.306 45.1436 409.306 45.3673V50.6443L407.889 49.2272C408.15 48.8543 408.299 48.4254 408.299 47.9592C408.299 47.3625 408.075 46.8031 407.646 46.3929C406.807 45.5538 405.334 45.5538 404.495 46.3929C403.618 47.2693 403.618 48.6678 404.495 49.5442C404.923 49.9731 405.502 50.1968 406.061 50.1968C406.509 50.1968 406.956 50.0663 407.329 49.7866L408.746 51.2037H403.469C403.245 51.2037 403.077 51.3716 403.077 51.5953C403.077 51.8191 403.245 51.9869 403.469 51.9869H409.287V54.3177H406.565C406.341 54.3177 406.173 54.4856 406.173 54.7093C406.173 54.9331 406.341 55.1009 406.565 55.1009H409.287V57.8233C409.287 58.0471 409.455 58.2149 409.679 58.2149C409.903 58.2149 410.071 58.0471 410.071 57.8233V55.1009H412.625L416.747 59.2218H411.469C411.245 59.2218 411.078 59.3896 411.078 59.6134C411.078 59.8372 411.245 60.005 411.469 60.005H417.511L419.843 62.3358H414.565C414.36 62.3358 414.211 62.485 414.192 62.6715C414.08 62.8206 414.08 63.0444 414.211 63.1749L417.94 66.9042H414.658L410.388 62.6342C410.238 62.485 409.996 62.485 409.847 62.6342C409.698 62.7833 409.698 63.0257 409.847 63.1936L413.577 66.9229H407.758L405.949 65.1142L407.87 63.1936C408.019 63.0444 408.019 62.802 407.87 62.6342C407.721 62.485 407.478 62.485 407.329 62.6342L405.408 64.5548L403.488 62.6342C403.338 62.485 403.096 62.485 402.947 62.6342C402.798 62.7833 402.798 63.0257 402.947 63.1936L404.868 65.1142L403.226 66.7551L399.105 62.6342C398.956 62.485 398.713 62.485 398.564 62.6342C398.415 62.7833 398.415 63.0257 398.564 63.1936L402.294 66.9229H400.299C400.112 65.8787 399.198 65.0955 398.117 65.0955C396.886 65.0955 395.897 66.1024 395.897 67.3145C395.897 68.5452 396.904 69.5334 398.117 69.5334C399.217 69.5334 400.112 68.7316 400.299 67.7061H402.294L398.564 71.4354C398.415 71.5846 398.415 71.827 398.564 71.9948C398.639 72.0694 398.732 72.1067 398.844 72.1067C398.937 72.1067 399.049 72.0694 399.124 71.9948L403.245 67.8739L404.886 69.5148L402.965 71.4354C402.816 71.5846 402.816 71.827 402.965 71.9948C403.04 72.0694 403.133 72.1067 403.245 72.1067C403.338 72.1067 403.45 72.0694 403.525 71.9948L405.446 70.0742L407.366 71.9948C407.441 72.0694 407.534 72.1067 407.646 72.1067C407.758 72.1067 407.851 72.0694 407.926 71.9948C408.075 71.8456 408.075 71.6032 407.926 71.4354L406.005 69.5148L407.814 67.7061H413.633L409.903 71.4354C409.754 71.5846 409.754 71.827 409.903 71.9948C409.977 72.0694 410.071 72.1067 410.182 72.1067C410.276 72.1067 410.388 72.0694 410.462 71.9948L414.733 67.7247H418.015L414.285 71.454C414.136 71.6032 414.136 71.8083 414.267 71.9575C414.285 72.144 414.453 72.2931 414.64 72.2931H419.917L417.586 74.624H411.544C411.32 74.624 411.152 74.7918 411.152 75.0155C411.152 75.2393 411.32 75.4071 411.544 75.4071H416.821L412.7 79.528H410.145V76.8056C410.145 76.5819 409.977 76.414 409.754 76.414C409.53 76.414 409.362 76.5819 409.362 76.8056V79.528H406.639C406.415 79.528 406.248 79.6959 406.248 79.9196C406.248 80.1434 406.415 80.3112 406.639 80.3112H409.362V82.642H403.543C403.32 82.642 403.152 82.8099 403.152 83.0336C403.152 83.2574 403.32 83.4252 403.543 83.4252H408.821L407.404 84.8423C406.546 84.2643 405.315 84.3389 404.569 85.0848C404.14 85.5136 403.916 86.073 403.916 86.6511C403.916 87.2478 404.14 87.8072 404.569 88.2174C404.998 88.6463 405.558 88.87 406.136 88.87C406.732 88.87 407.292 88.6463 407.702 88.2174C408.131 87.7885 408.355 87.2291 408.355 86.6511C408.355 86.1849 408.206 85.756 407.945 85.3831L409.362 83.966V89.243C409.362 89.4667 409.53 89.6345 409.754 89.6345C409.977 89.6345 410.145 89.4667 410.145 89.243V83.4252H412.476V86.1476C412.476 86.3714 412.644 86.5392 412.868 86.5392C413.092 86.5392 413.26 86.3714 413.26 86.1476V83.4252H415.982C416.206 83.4252 416.374 83.2574 416.374 83.0336C416.374 82.8099 416.206 82.642 415.982 82.642H413.26V80.0874L417.381 75.9665V81.2435C417.381 81.4673 417.549 81.6351 417.773 81.6351C417.996 81.6351 418.164 81.4673 418.164 81.2435V75.1461L420.495 72.8152V78.0923C420.495 78.2974 420.645 78.4465 420.831 78.4652C420.98 78.5771 421.204 78.5771 421.334 78.4465L425.064 74.7172V77.999L420.794 82.2691C420.644 82.4183 420.644 82.6607 420.794 82.8099C420.943 82.959 421.185 82.959 421.334 82.8099L425.064 79.0805V84.8983L423.255 86.707L421.334 84.7864C421.185 84.6372 420.943 84.6372 420.794 84.7864C420.644 84.9356 420.644 85.178 420.794 85.3272L422.715 87.2478L420.794 89.1684C420.644 89.3175 420.644 89.56 420.794 89.7278C420.943 89.8769 421.185 89.8769 421.334 89.7278L423.255 87.8072L424.896 89.4481L420.775 93.569C420.626 93.7182 420.626 93.9606 420.775 94.1097C420.85 94.1843 420.943 94.2216 421.055 94.2216C421.148 94.2216 421.26 94.1843 421.334 94.1097L425.064 90.3804V92.3756C424.02 92.5621 423.237 93.4758 423.237 94.5573C423.237 95.7879 424.244 96.7762 425.456 96.7762C426.687 96.7762 427.675 95.7693 427.675 94.5573C427.675 93.4571 426.873 92.5621 425.848 92.3756V90.3804L429.577 94.1097C429.727 94.2589 429.969 94.2589 430.118 94.1097C430.267 93.9606 430.267 93.7182 430.118 93.569L425.997 89.4481L427.638 87.8072L429.559 89.7278C429.633 89.8024 429.727 89.8397 429.838 89.8397C429.932 89.8397 430.044 89.8024 430.118 89.7278C430.267 89.5786 430.267 89.3362 430.118 89.1684L428.197 87.2478L430.118 85.3272C430.267 85.178 430.267 84.9356 430.118 84.7864C429.969 84.6372 429.727 84.6372 429.577 84.7864L427.656 86.707L425.848 84.8983V79.0805L429.577 82.8099C429.652 82.8844 429.745 82.9217 429.857 82.9217C429.95 82.9217 430.062 82.8844 430.137 82.8099C430.286 82.6607 430.286 82.4183 430.137 82.2691L425.866 77.999V74.7172L429.596 78.4465C429.671 78.5211 429.764 78.5584 429.876 78.5584C429.969 78.5584 430.044 78.5211 430.118 78.4652C430.305 78.4465 430.454 78.2787 430.454 78.0923V72.8152L432.785 75.1461V81.1876C432.785 81.4114 432.953 81.5792 433.177 81.5792C433.4 81.5792 433.568 81.4114 433.568 81.1876V75.9106L437.69 80.0315V82.5861H434.967C434.743 82.5861 434.575 82.7539 434.575 82.9777C434.575 83.2014 434.743 83.3693 434.967 83.3693H437.69V86.0917C437.69 86.3154 437.857 86.4833 438.081 86.4833C438.305 86.4833 438.473 86.3154 438.473 86.0917V83.3693H440.804V89.187C440.804 89.4108 440.972 89.5786 441.196 89.5786C441.419 89.5786 441.587 89.4108 441.587 89.187V83.91L443.005 85.3272C442.743 85.7001 442.594 86.129 442.594 86.5951C442.594 87.1918 442.818 87.7512 443.247 88.1615C443.676 88.5903 444.235 88.8141 444.813 88.8141C445.41 88.8141 445.97 88.5903 446.38 88.1615C446.809 87.7326 447.033 87.1732 447.033 86.5951C447.033 85.9984 446.809 85.439 446.38 85.0288C445.634 84.2829 444.403 84.2084 443.545 84.7864L442.128 83.3693H447.406C447.629 83.3693 447.797 83.2014 447.797 82.9777C447.797 82.7539 447.629 82.5861 447.406 82.5861H441.587V80.2553H444.31C444.534 80.2553 444.702 80.0874 444.702 79.8637C444.702 79.6399 444.534 79.4721 444.31 79.4721H441.587V76.7497C441.587 76.5259 441.419 76.3581 441.196 76.3581C440.972 76.3581 440.804 76.5259 440.804 76.7497V79.4721H438.249L434.128 75.3512H439.405C439.629 75.3512 439.797 75.1834 439.797 74.9596C439.797 74.7359 439.629 74.568 439.405 74.568H433.363L431.032 72.2372H436.31C436.515 72.2372 436.664 72.088 436.683 71.9016C436.794 71.7524 436.794 71.5286 436.664 71.3981L432.934 67.6688H436.216L440.487 71.9389C440.562 72.0134 440.655 72.0507 440.767 72.0507C440.86 72.0507 440.972 72.0134 441.046 71.9389C441.196 71.7897 441.196 71.5473 441.046 71.3794L437.317 67.6501H443.135L444.944 69.4588L443.023 71.3794C442.874 71.5286 442.874 71.771 443.023 71.9389C443.098 72.0134 443.191 72.0507 443.303 72.0507C443.396 72.0507 443.508 72.0134 443.583 71.9389L445.503 70.0182L447.424 71.9389C447.499 72.0134 447.592 72.0507 447.704 72.0507C447.797 72.0507 447.909 72.0134 447.984 71.9389C448.133 71.7897 448.133 71.5473 447.984 71.3794L446.063 69.4588L447.704 67.8179L451.825 71.9389C451.9 72.0134 451.993 72.0507 452.105 72.0507C452.198 72.0507 452.31 72.0134 452.385 71.9389C452.534 71.7897 452.534 71.5473 452.385 71.3794L448.655 67.6501H450.651C450.837 68.6943 451.751 69.4775 452.833 69.4775C454.063 69.4775 455.052 68.4706 455.052 67.2585C454.865 66.0838 453.858 65.0769 452.627 65.0769ZM443.62 46.971C443.9 46.6912 444.254 46.5421 444.646 46.5421C445.037 46.5421 445.392 46.6912 445.671 46.971C446.231 47.5304 446.231 48.444 445.671 49.0221C445.112 49.5815 444.198 49.5815 443.62 49.0221C443.042 48.444 443.042 47.5304 443.62 46.971ZM440.617 54.3364H438.846L440.617 52.565V54.3364ZM438.305 52.0056H440.077L438.305 53.777V52.0056ZM407.031 49.0221C406.471 49.5815 405.558 49.5815 404.979 49.0221C404.42 48.4627 404.42 47.549 404.979 46.971C405.259 46.6912 405.613 46.5421 406.005 46.5421C406.397 46.5421 406.751 46.6912 407.031 46.971C407.311 47.2507 407.46 47.6049 407.46 47.9965C407.46 48.3881 407.311 48.7424 407.031 49.0221ZM410.033 54.3364V52.565L411.805 54.3364H410.033ZM412.346 53.777L410.574 52.0056H412.346V53.777ZM398.023 68.7503C397.221 68.7503 396.569 68.0976 396.569 67.2958C396.569 66.494 397.221 65.8414 398.023 65.8414C398.825 65.8414 399.478 66.494 399.478 67.2958C399.459 68.0976 398.807 68.7503 398.023 68.7503ZM405.334 68.9554L404.084 67.7061H406.602L405.334 68.9554ZM404.084 66.9042L405.334 65.6549L406.583 66.9042H404.084ZM407.031 87.6393C406.49 88.1801 405.539 88.1801 404.979 87.6393C404.42 87.0799 404.42 86.1663 404.979 85.5882C405.259 85.3085 405.613 85.1593 406.005 85.1593C406.397 85.1593 406.751 85.3085 407.031 85.5882C407.311 85.8679 407.46 86.2222 407.46 86.6138C407.46 87.0054 407.311 87.3596 407.031 87.6393ZM410.033 80.2739H411.805L410.033 82.0453V80.2739ZM412.346 82.6047H410.574L412.346 80.8333V82.6047ZM443.62 85.5882C443.9 85.3085 444.254 85.1593 444.646 85.1593C445.037 85.1593 445.392 85.3085 445.671 85.5882C446.231 86.1476 446.231 87.0613 445.671 87.6393C445.13 88.1801 444.179 88.1801 443.62 87.6393C443.042 87.0613 443.042 86.1476 443.62 85.5882ZM440.617 80.2739V82.0453L438.846 80.2739H440.617ZM438.305 80.8147L440.077 82.5861H438.305V80.8147ZM430.062 63.119H435.433L431.629 66.9229H426.258L430.062 63.119ZM429.521 57.1893V62.5596L425.717 66.3635V60.9932L429.521 57.1893ZM426.966 47.3066L425.717 48.5559V46.0573L426.966 47.3066ZM423.684 47.3066L424.934 46.0573V48.5746L423.684 47.3066ZM421.129 57.1893L424.934 60.9932V66.3635L421.129 62.5596V57.1893ZM415.199 63.119H420.57L424.374 66.9229H419.003L415.199 63.119ZM420.589 71.4913H415.218L419.022 67.6874H424.393L420.589 71.4913ZM421.129 77.421V72.0507L424.934 68.2468V73.617L421.129 77.421ZM423.684 87.2851L424.934 86.0357V88.553L423.684 87.2851ZM426.78 94.6132C426.78 95.415 426.127 96.0676 425.325 96.0676C424.523 96.0676 423.871 95.415 423.871 94.6132C423.871 93.8114 424.523 93.1588 425.325 93.1588C426.127 93.1588 426.78 93.8114 426.78 94.6132ZM426.966 87.2851L425.717 88.5344V86.0171L426.966 87.2851ZM425.325 41.4515C424.523 41.4515 423.871 40.7989 423.871 39.9971C423.871 39.1953 424.523 38.5427 425.325 38.5427C426.127 38.5427 426.78 39.1953 426.78 39.9971C426.78 40.7989 426.127 41.4515 425.325 41.4515ZM429.521 77.421L425.717 73.617V68.2468L429.521 72.0507V77.421ZM435.452 71.4913H430.081L426.276 67.6874H431.647L435.452 71.4913ZM445.317 68.9554L444.068 67.7061H446.585L445.317 68.9554ZM444.068 66.9042L445.317 65.6549L446.566 66.9042H444.068ZM452.627 68.7503C451.825 68.7503 451.173 68.0976 451.173 67.2958C451.173 66.494 451.825 65.8414 452.627 65.8414C453.429 65.8414 454.082 66.494 454.082 67.2958C454.082 68.0976 453.429 68.7503 452.627 68.7503Z" fill="#E00909"/>
<path d="M244.674 67.2959C244.674 68.5265 245.681 69.5148 246.893 69.5148C247.993 69.5148 248.888 68.713 249.075 67.6874H251.07L247.34 71.4168C247.191 71.5659 247.191 71.8083 247.34 71.9762C247.415 72.0508 247.508 72.0881 247.62 72.0881C247.713 72.0881 247.825 72.0508 247.9 71.9762L252.021 67.8553L253.662 69.4962L251.76 71.4168C251.611 71.5659 251.611 71.8083 251.76 71.9762C251.835 72.0508 251.928 72.0881 252.04 72.0881C252.133 72.0881 252.245 72.0508 252.32 71.9762L254.24 70.0556L256.161 71.9762C256.236 72.0508 256.329 72.0881 256.441 72.0881C256.534 72.0881 256.646 72.0508 256.721 71.9762C256.87 71.827 256.87 71.5846 256.721 71.4168L254.8 69.4962L256.609 67.6874H262.427L258.697 71.4168C258.548 71.5659 258.548 71.8083 258.697 71.9762C258.772 72.0508 258.865 72.0881 258.977 72.0881C259.07 72.0881 259.182 72.0508 259.257 71.9762L263.528 67.7061H266.81L263.08 71.4354C262.931 71.5846 262.931 71.7897 263.061 71.9389C263.08 72.1254 263.248 72.2745 263.434 72.2745H268.712L266.381 74.6054H260.339C260.115 74.6054 259.947 74.7732 259.947 74.9969C259.947 75.2207 260.115 75.3885 260.339 75.3885H265.616L261.495 79.5094H258.94V76.787C258.94 76.5633 258.772 76.3954 258.548 76.3954C258.325 76.3954 258.157 76.5633 258.157 76.787V79.5094H255.434C255.21 79.5094 255.042 79.6772 255.042 79.901C255.042 80.1248 255.21 80.2926 255.434 80.2926H258.157V82.6234H252.338C252.114 82.6234 251.947 82.7912 251.947 83.015C251.947 83.2388 252.114 83.4066 252.338 83.4066H257.616L256.199 84.8237C255.341 84.2457 254.11 84.3203 253.364 85.0661C252.935 85.495 252.711 86.0544 252.711 86.6325C252.711 87.2292 252.935 87.7886 253.364 88.1988C253.793 88.6277 254.352 88.8514 254.93 88.8514C255.527 88.8514 256.087 88.6277 256.497 88.1988C256.926 87.7699 257.15 87.2105 257.15 86.6325C257.15 86.1663 257 85.7374 256.739 85.3645L258.157 83.9473V89.2243C258.157 89.4481 258.325 89.6159 258.548 89.6159C258.772 89.6159 258.94 89.4481 258.94 89.2243V83.4066H261.271V86.129C261.271 86.3528 261.439 86.5206 261.663 86.5206C261.886 86.5206 262.054 86.3528 262.054 86.129V83.4066H264.777C265.001 83.4066 265.169 83.2388 265.169 83.015C265.169 82.7912 265.001 82.6234 264.777 82.6234H262.054V80.0688L266.176 75.9479V81.2249C266.176 81.4487 266.344 81.6165 266.567 81.6165C266.791 81.6165 266.959 81.4487 266.959 81.2249V75.1461L269.29 72.8153V78.0923C269.29 78.2974 269.439 78.4466 269.626 78.4652C269.7 78.5212 269.775 78.5585 269.868 78.5585C269.961 78.5585 270.073 78.5212 270.148 78.4466L273.878 74.7172V77.9991L269.607 82.2691C269.458 82.4183 269.458 82.6607 269.607 82.8099C269.682 82.8845 269.775 82.9218 269.887 82.9218C269.98 82.9218 270.092 82.8845 270.167 82.8099L273.896 79.0806V84.8983L272.087 86.707L270.167 84.7864C270.017 84.6373 269.775 84.6373 269.626 84.7864C269.477 84.9356 269.477 85.178 269.626 85.3272L271.547 87.2478L269.626 89.1684C269.477 89.3176 269.477 89.56 269.626 89.7278C269.7 89.8024 269.794 89.8397 269.905 89.8397C269.999 89.8397 270.111 89.8024 270.185 89.7278L272.106 87.8072L273.747 89.4481L269.626 93.569C269.477 93.7182 269.477 93.9606 269.626 94.1098C269.775 94.259 270.017 94.259 270.167 94.1098L273.896 90.3804V92.3756C272.852 92.5621 272.069 93.4758 272.069 94.5573C272.069 95.788 273.076 96.7763 274.288 96.7763C275.519 96.7763 276.507 95.7693 276.507 94.5573C276.507 93.4571 275.705 92.5621 274.68 92.3756V90.3804L278.409 94.1098C278.484 94.1844 278.577 94.2217 278.689 94.2217C278.782 94.2217 278.894 94.1844 278.969 94.1098C279.118 93.9606 279.118 93.7182 278.969 93.569L274.847 89.4481L276.489 87.8072L278.409 89.7278C278.559 89.877 278.801 89.877 278.95 89.7278C279.099 89.5786 279.099 89.3362 278.95 89.1684L277.029 87.2478L278.95 85.3272C279.099 85.178 279.099 84.9356 278.95 84.7864C278.801 84.6373 278.559 84.6373 278.409 84.7864L276.489 86.707L274.68 84.8983V79.0806L278.409 82.8099C278.559 82.9591 278.801 82.9591 278.95 82.8099C279.099 82.6607 279.099 82.4183 278.95 82.2691L274.68 77.9991V74.7172L278.409 78.4466C278.559 78.5957 278.764 78.5957 278.913 78.4652C279.099 78.4466 279.249 78.2788 279.249 78.0923V72.8153L281.58 75.1461V81.1876C281.58 81.4114 281.748 81.5792 281.971 81.5792C282.195 81.5792 282.363 81.4114 282.363 81.1876V75.9106L286.484 80.0315V82.5861H283.762C283.538 82.5861 283.37 82.754 283.37 82.9777C283.37 83.2015 283.538 83.3693 283.762 83.3693H286.484V86.0917C286.484 86.3155 286.652 86.4833 286.876 86.4833C287.1 86.4833 287.268 86.3155 287.268 86.0917V83.3693H289.599V89.1871C289.599 89.4108 289.767 89.5786 289.99 89.5786C290.214 89.5786 290.382 89.4108 290.382 89.1871V83.91L291.799 85.3272C291.538 85.7001 291.389 86.129 291.389 86.5952C291.389 87.1919 291.613 87.7513 292.042 88.1615C292.471 88.5904 293.011 88.8141 293.608 88.8141C294.205 88.8141 294.764 88.5904 295.175 88.1615C295.604 87.7326 295.827 87.1732 295.827 86.5952C295.827 85.9985 295.604 85.4391 295.175 85.0288C294.429 84.283 293.198 84.2084 292.34 84.7864L290.923 83.3693H296.2C296.424 83.3693 296.592 83.2015 296.592 82.9777C296.592 82.754 296.424 82.5861 296.2 82.5861H290.382V80.2553H293.105C293.328 80.2553 293.496 80.0875 293.496 79.8637C293.496 79.64 293.328 79.4721 293.105 79.4721H290.382V76.7497C290.382 76.526 290.214 76.3581 289.99 76.3581C289.767 76.3581 289.599 76.526 289.599 76.7497V79.4721H287.044L282.922 75.3512H288.2C288.424 75.3512 288.592 75.1834 288.592 74.9596C288.592 74.7359 288.424 74.5681 288.2 74.5681H282.158L279.733 72.2745H285.011C285.216 72.2745 285.365 72.1254 285.384 71.9389C285.496 71.7897 285.496 71.5659 285.365 71.4354L281.636 67.7061H284.918L289.188 71.9762C289.263 72.0508 289.356 72.0881 289.468 72.0881C289.561 72.0881 289.673 72.0508 289.748 71.9762C289.897 71.827 289.897 71.5846 289.748 71.4168L286.018 67.6874H291.837L293.646 69.4962L291.725 71.4168C291.575 71.5659 291.575 71.8083 291.725 71.9762C291.799 72.0508 291.893 72.0881 292.004 72.0881C292.098 72.0881 292.21 72.0508 292.284 71.9762L294.205 70.0556L296.126 71.9762C296.2 72.0508 296.294 72.0881 296.406 72.0881C296.499 72.0881 296.611 72.0508 296.685 71.9762C296.834 71.827 296.834 71.5846 296.685 71.4168L294.764 69.4962L296.406 67.8553L300.527 71.9762C300.602 72.0508 300.695 72.0881 300.807 72.0881C300.9 72.0881 301.012 72.0508 301.086 71.9762C301.236 71.827 301.236 71.5846 301.086 71.4168L297.357 67.6874H299.352C299.539 68.7316 300.452 69.5148 301.534 69.5148C302.765 69.5148 303.753 68.5079 303.753 67.2959C303.753 66.0652 302.746 65.0769 301.534 65.0769C300.434 65.0769 299.539 65.8787 299.352 66.9043H297.357L301.086 63.1749C301.236 63.0258 301.236 62.7834 301.086 62.6155C300.937 62.4664 300.695 62.4664 300.527 62.6155L296.406 66.7365L294.764 65.0955L296.685 63.1749C296.834 63.0258 296.834 62.7834 296.685 62.6155C296.536 62.4664 296.294 62.4664 296.144 62.6155L294.224 64.5361L292.303 62.6155C292.154 62.4664 291.911 62.4664 291.762 62.6155C291.613 62.7647 291.613 63.0071 291.762 63.1749L293.683 65.0955L291.874 66.9043H286.055L289.785 63.1749C289.934 63.0258 289.934 62.7834 289.785 62.6155C289.636 62.4664 289.394 62.4664 289.244 62.6155L284.974 66.8856H281.692L285.421 63.1563C285.571 63.0071 285.571 62.802 285.44 62.6528C285.421 62.4664 285.254 62.3172 285.067 62.3172H279.733L282.065 59.9864H288.107C288.331 59.9864 288.498 59.8185 288.498 59.5948C288.498 59.371 288.331 59.2032 288.107 59.2032H282.829L286.951 55.0823H289.505V57.8047C289.505 58.0285 289.673 58.1963 289.897 58.1963C290.121 58.1963 290.289 58.0285 290.289 57.8047V55.0823H293.011C293.235 55.0823 293.403 54.9145 293.403 54.6907C293.403 54.4669 293.235 54.2991 293.011 54.2991H290.289V51.9683H296.107C296.331 51.9683 296.499 51.8005 296.499 51.5767C296.499 51.3529 296.331 51.1851 296.107 51.1851H290.83L292.247 49.768C292.62 50.029 293.067 50.1782 293.515 50.1782C294.093 50.1782 294.653 49.9544 295.081 49.5256C295.958 48.6492 295.958 47.2507 295.081 46.3743C294.242 45.5352 292.769 45.5352 291.93 46.3743C291.501 46.8032 291.277 47.3626 291.277 47.9406C291.277 48.4068 291.426 48.8356 291.687 49.2086L290.27 50.6257V45.3487C290.27 45.125 290.102 44.9571 289.878 44.9571C289.655 44.9571 289.487 45.125 289.487 45.3487V51.1665H287.193V48.4441C287.193 48.2203 287.025 48.0525 286.801 48.0525C286.578 48.0525 286.41 48.2203 286.41 48.4441V51.1665H283.687C283.463 51.1665 283.295 51.3343 283.295 51.5581C283.295 51.7818 283.463 51.9496 283.687 51.9496H286.41V54.5042L282.288 58.6252V53.3481C282.288 53.1244 282.121 52.9566 281.897 52.9566C281.673 52.9566 281.505 53.1244 281.505 53.3481V59.3897L279.174 61.7205V56.4435C279.174 56.2384 279.025 56.0892 278.838 56.0706C278.689 55.9587 278.465 55.9587 278.335 56.0892L274.605 59.8185V56.5367L278.876 52.2666C279.025 52.1175 279.025 51.8751 278.876 51.7072C278.726 51.5581 278.484 51.5581 278.335 51.7072L274.605 55.4366V49.6188L276.414 47.8101L278.335 49.7307C278.484 49.8799 278.726 49.8799 278.876 49.7307C279.025 49.5815 279.025 49.3391 278.876 49.1713L276.955 47.2507L278.876 45.3301C279.025 45.1809 279.025 44.9385 278.876 44.7893C278.726 44.6401 278.484 44.6401 278.335 44.7893L276.414 46.7099L274.773 45.069L278.894 40.9481C279.043 40.7989 279.043 40.5565 278.894 40.3887C278.745 40.2395 278.503 40.2395 278.353 40.3887L274.624 44.118V42.1228C275.668 41.9364 276.451 41.0227 276.451 39.9412C276.451 38.7105 275.444 37.7222 274.232 37.7222C273.001 37.7222 272.013 38.7292 272.013 39.9412C272.013 41.0413 272.815 41.9364 273.84 42.1228V44.118L270.111 40.3887C269.961 40.2395 269.719 40.2395 269.57 40.3887C269.421 40.5379 269.421 40.7803 269.57 40.9481L273.691 45.069L272.05 46.7099L270.129 44.7893C269.98 44.6401 269.738 44.6401 269.588 44.7893C269.439 44.9385 269.439 45.1809 269.588 45.3301L271.509 47.2507L269.588 49.1713C269.439 49.3205 269.439 49.5629 269.588 49.7307C269.663 49.8053 269.756 49.8426 269.868 49.8426C269.961 49.8426 270.073 49.8053 270.148 49.7307L272.069 47.8101L273.878 49.6188V55.4366L270.148 51.7072C269.999 51.5581 269.756 51.5581 269.607 51.7072C269.458 51.8564 269.458 52.0988 269.607 52.2666L273.878 56.5367V59.8185L270.148 56.0892C269.999 55.94 269.794 55.94 269.644 56.0706C269.458 56.0892 269.309 56.257 269.309 56.4435V61.7205L266.978 59.3897V53.3481C266.978 53.1244 266.81 52.9566 266.586 52.9566C266.362 52.9566 266.194 53.1244 266.194 53.3481V58.6252L262.073 54.5042V51.9496H264.796C265.019 51.9496 265.187 51.7818 265.187 51.5581C265.187 51.3343 265.019 51.1665 264.796 51.1665H262.073V48.4441C262.073 48.2203 261.905 48.0525 261.681 48.0525C261.458 48.0525 261.29 48.2203 261.29 48.4441V51.1665H258.959V45.3487C258.959 45.125 258.791 44.9571 258.567 44.9571C258.343 44.9571 258.175 45.125 258.175 45.3487V50.6257L256.758 49.2086C257.355 48.3322 257.28 47.1388 256.516 46.3556C255.676 45.5165 254.203 45.5165 253.364 46.3556C252.487 47.232 252.487 48.6305 253.364 49.5069C253.793 49.9358 254.371 50.1596 254.93 50.1596C255.378 50.1596 255.826 50.029 256.199 49.7493L257.616 51.1665H252.338C252.114 51.1665 251.947 51.3343 251.947 51.5581C251.947 51.7818 252.114 51.9496 252.338 51.9496H258.157V54.2805H255.434C255.21 54.2805 255.042 54.4483 255.042 54.6721C255.042 54.8958 255.21 55.0636 255.434 55.0636H258.157V57.7861C258.157 58.0098 258.325 58.1776 258.548 58.1776C258.772 58.1776 258.94 58.0098 258.94 57.7861V55.0636H261.495L265.616 59.1846H260.339C260.115 59.1846 259.947 59.3524 259.947 59.5761C259.947 59.7999 260.115 59.9677 260.339 59.9677H266.381L268.712 62.2985H263.434C263.229 62.2985 263.08 62.4477 263.061 62.6342C262.949 62.7834 262.949 63.0071 263.08 63.1376L266.81 66.867H263.528L259.257 62.5969C259.108 62.4477 258.865 62.4477 258.716 62.5969C258.567 62.7461 258.567 62.9885 258.716 63.1563L262.446 66.8856H256.627L254.819 65.0769L256.739 63.1563C256.889 63.0071 256.889 62.7647 256.739 62.5969C256.59 62.4477 256.348 62.4477 256.199 62.5969L254.278 64.5175L252.357 62.5969C252.208 62.4477 251.965 62.4477 251.816 62.5969C251.667 62.7461 251.667 62.9885 251.816 63.1563L253.737 65.0769L252.096 66.7178L247.974 62.5969C247.825 62.4477 247.583 62.4477 247.434 62.5969C247.284 62.7461 247.284 62.9885 247.434 63.1563L251.163 66.8856H249.168C248.981 65.8414 248.068 65.0583 246.986 65.0583C245.681 65.0769 244.674 66.0838 244.674 67.2959ZM255.937 49.0221C255.378 49.5815 254.464 49.5815 253.886 49.0221C253.327 48.4627 253.327 47.549 253.886 46.971C254.166 46.6913 254.52 46.5421 254.912 46.5421C255.303 46.5421 255.658 46.6913 255.937 46.971C256.497 47.5304 256.497 48.4441 255.937 49.0221ZM258.921 52.5463L260.693 54.3178H258.921V52.5463ZM261.234 53.777L259.462 52.0056H261.234V53.777ZM292.079 47.9965C292.079 47.605 292.228 47.2507 292.508 46.971C292.788 46.6913 293.142 46.5421 293.534 46.5421C293.925 46.5421 294.28 46.6913 294.559 46.971C295.119 47.5304 295.119 48.4441 294.559 49.0221C294 49.5815 293.086 49.5815 292.508 49.0221C292.228 48.7424 292.079 48.3881 292.079 47.9965ZM287.734 54.3364L289.505 52.565V54.3364H287.734ZM287.193 52.0056H288.965L287.193 53.777V52.0056ZM300.079 67.2959C300.079 66.4941 300.732 65.8414 301.534 65.8414C302.336 65.8414 302.989 66.4941 302.989 67.2959C302.989 68.0977 302.336 68.7503 301.534 68.7503C300.732 68.7503 300.079 68.0977 300.079 67.2959ZM292.955 67.6874H295.473L294.224 68.9368L292.955 67.6874ZM292.955 66.9043L294.205 65.6549L295.454 66.9043H292.955ZM292.079 86.6138C292.079 86.2222 292.228 85.8679 292.508 85.5882C292.788 85.3085 293.142 85.1594 293.534 85.1594C293.925 85.1594 294.28 85.3085 294.559 85.5882C295.119 86.1476 295.119 87.0613 294.559 87.6394C294.018 88.1801 293.067 88.1801 292.508 87.6394C292.228 87.3597 292.079 87.0054 292.079 86.6138ZM289.524 82.0454L287.752 80.2739H289.524V82.0454ZM287.193 80.8147L288.965 82.5861H287.193V80.8147ZM255.937 87.6394C255.397 88.1801 254.446 88.1801 253.886 87.6394C253.327 87.08 253.327 86.1663 253.886 85.5882C254.166 85.3085 254.52 85.1594 254.912 85.1594C255.303 85.1594 255.658 85.3085 255.937 85.5882C256.497 86.1476 256.497 87.0613 255.937 87.6394ZM260.693 80.2739L258.921 82.0454V80.2739H260.693ZM261.234 82.6048H259.462L261.234 80.8333V82.6048ZM273.281 66.9043H267.91L264.106 63.1004H269.477L273.281 66.9043ZM273.822 60.9933V66.3635L270.017 62.5596V57.1894L273.822 60.9933ZM273.822 46.0573V48.5746L272.572 47.3253L273.822 46.0573ZM274.605 48.5746V46.0573L275.854 47.3066L274.605 48.5746ZM278.409 62.5596L274.605 66.3635V60.9933L278.409 57.1894V62.5596ZM280.535 66.9043H275.164L278.969 63.1004H284.34L280.535 66.9043ZM275.146 67.6874H280.517L284.321 71.4914H278.95L275.146 67.6874ZM274.605 73.6171V68.2468L278.409 72.0508V77.421L274.605 73.6171ZM274.605 88.5531V86.0358L275.854 87.2851L274.605 88.5531ZM274.213 93.1588C275.015 93.1588 275.668 93.8114 275.668 94.6132C275.668 95.415 275.015 96.0677 274.213 96.0677C273.411 96.0677 272.759 95.415 272.759 94.6132C272.759 93.8114 273.411 93.1588 274.213 93.1588ZM273.822 86.0358V88.5531L272.572 87.3037L273.822 86.0358ZM272.759 39.9971C272.759 39.1953 273.411 38.5427 274.213 38.5427C275.015 38.5427 275.668 39.1953 275.668 39.9971C275.668 40.7989 275.015 41.4516 274.213 41.4516C273.411 41.4516 272.759 40.7989 272.759 39.9971ZM270.017 72.0508L273.822 68.2468V73.6171L270.017 77.421V72.0508ZM267.891 67.6874H273.262L269.458 71.4914H264.087L267.891 67.6874ZM252.972 67.6874H255.49L254.24 68.9368L252.972 67.6874ZM252.972 66.9043L254.222 65.6549L255.471 66.9043H252.972ZM245.457 67.2959C245.457 66.4941 246.109 65.8414 246.911 65.8414C247.713 65.8414 248.366 66.4941 248.366 67.2959C248.366 68.0977 247.713 68.7503 246.911 68.7503C246.109 68.7503 245.457 68.0977 245.457 67.2959Z" fill="#E00909"/>
<path d="M502.774 56.8537C504.597 56.8537 506.075 55.3761 506.075 53.5533C506.075 51.7305 504.597 50.2528 502.774 50.2528C500.951 50.2528 499.473 51.7305 499.473 53.5533C499.473 55.3761 500.951 56.8537 502.774 56.8537Z" fill="#0063F8"/>
<path d="M570.712 54.2245C570.712 54.2245 569.724 54.728 567.989 55.623C566.255 56.5181 563.812 57.842 560.884 59.4456C557.956 61.0492 554.599 63.0258 551.056 65.2074C547.513 67.3891 543.764 69.7945 540.109 72.2932C536.435 74.7918 532.911 77.4583 529.591 79.9943C526.272 82.5302 523.102 84.8051 520.379 86.763C517.656 88.7209 515.232 90.1194 513.516 91.089C511.8 92.0214 510.793 92.5062 510.793 92.5062C510.793 92.5062 511.707 91.8535 513.292 90.7161C514.896 89.6159 517.097 87.9004 519.745 85.8866C522.412 83.8728 525.358 81.3555 528.64 78.7449C531.904 76.1344 535.466 73.3933 539.177 70.9133C542.925 68.452 546.73 66.1211 550.385 64.07C554.04 62.0002 557.527 60.2474 560.53 58.7743C563.532 57.3013 566.106 56.2011 567.896 55.4179C569.686 54.6721 570.712 54.2245 570.712 54.2245Z" fill="#0063F8"/>
<path d="M499.678 81.6724C499.678 81.6724 501.208 81.113 503.651 79.7332C506.131 78.3906 509.413 76.0784 513.479 73.4119C517.6 70.8573 522.113 67.5382 526.98 63.9394C529.423 62.1493 531.96 60.3033 534.589 58.5132C537.237 56.7604 539.923 54.9704 542.608 53.1803C547.998 49.6188 553.518 46.2064 558.907 43.4094C564.278 40.5378 569.556 38.3562 574.237 36.995C576.587 36.305 578.75 35.8016 580.727 35.5219C582.703 35.2608 584.456 35.2608 585.874 35.3727C587.291 35.5219 588.391 35.7643 589.119 35.9508C589.846 36.1372 590.238 36.2864 590.238 36.2864C590.238 36.2864 589.846 36.1932 589.1 36.0626C588.354 35.9321 587.254 35.8016 585.855 35.7829C583.039 35.6524 579.104 36.4729 574.535 37.9646C569.948 39.419 564.819 41.7312 559.523 44.5655C554.264 47.4931 548.856 50.98 543.447 54.4856C540.743 56.2383 538.039 57.9911 535.372 59.7066C532.724 61.4408 530.188 63.2308 527.708 64.965C522.784 68.4519 518.048 71.6219 513.87 74.0646C509.768 76.6005 506.299 78.7262 503.763 79.9569C501.226 81.1876 499.678 81.6724 499.678 81.6724Z" fill="#0063F8"/>
<path d="M484.442 37.0696C484.442 37.0696 483.678 37.1069 482.41 37.3306C481.123 37.5357 479.333 38.0765 477.356 39.0275C475.379 39.9598 473.234 41.5075 471.537 43.5027C470.605 44.6215 469.878 45.703 469.318 46.971C469.038 47.6049 468.74 48.2576 468.572 48.9475L468.255 49.9731L468.069 51.0173C467.546 53.8143 467.733 56.7232 468.423 59.3151C469.132 61.9069 470.232 64.2005 471.537 65.9346C472.134 66.8483 472.843 67.5569 473.402 68.2468C474.036 68.8622 474.596 69.4216 475.099 69.8318C476.144 70.6336 476.74 71.0811 476.74 71.0811C476.74 71.0811 476.05 70.7641 474.838 70.2234C474.279 69.8877 473.589 69.4402 472.805 68.9181C472.115 68.3028 471.22 67.6688 470.512 66.7551C469.001 65.0023 467.509 62.6342 466.726 59.7999C465.905 56.9842 465.719 53.777 466.334 50.7003L466.577 49.5442L466.95 48.4254C467.173 47.6795 467.528 46.971 467.863 46.281C468.553 44.8825 469.523 43.5959 470.456 42.6076C472.488 40.4073 474.894 39.1021 477.02 38.2443C479.165 37.4052 481.086 37.1815 482.391 37.0882C483.715 37.0136 484.442 37.0696 484.442 37.0696Z" fill="#0063F8"/>
<path d="M471.295 57.6742C471.295 57.6742 471.705 57.3012 472.47 56.6672C473.253 56.0519 474.465 55.2874 476.069 54.672C477.673 54.0567 479.65 53.5532 481.813 53.46C483.976 53.3108 486.307 53.6092 488.545 54.2432C490.764 54.9331 492.909 56.0146 494.606 57.3758C496.34 58.7184 497.608 60.322 498.597 61.7205C499.604 63.119 500.182 64.4056 500.63 65.282C501.021 66.1957 501.245 66.6991 501.245 66.6991C501.245 66.6991 500.891 66.2703 500.275 65.4871C499.697 64.704 498.783 63.6411 497.702 62.4104C496.62 61.1797 495.203 59.8931 493.58 58.737C491.939 57.5996 490.056 56.6113 488.004 55.996C485.972 55.362 483.846 55.0077 481.831 54.9331C479.817 54.8585 477.897 55.0263 476.33 55.4552C474.764 55.8841 473.458 56.3689 472.619 56.8723C471.742 57.3385 471.295 57.6742 471.295 57.6742Z" fill="#0063F8"/>
<path d="M463.798 70.8387C463.798 70.8387 463.985 71.3608 464.302 72.2932C464.619 73.2069 465.141 74.5121 465.831 76.0039C466.521 77.4956 467.49 79.1738 468.721 80.7588C469.933 82.3437 471.444 83.9101 473.122 85.1967C474.764 86.5206 476.666 87.4156 478.531 88.0496C480.414 88.6277 482.26 89.0192 483.883 89.0565C485.487 89.0938 486.867 89.0565 487.818 88.8887C488.788 88.7955 489.347 88.665 489.347 88.665C489.347 88.665 488.862 88.9447 487.948 89.3735C487.035 89.7651 485.654 90.2499 483.92 90.3991C482.204 90.5669 480.116 90.5296 477.99 89.9516C475.864 89.3922 473.682 88.3293 471.854 86.8376C470.064 85.3272 468.516 83.5744 467.379 81.7284C466.222 79.8824 465.532 77.9804 465.01 76.3768C464.488 74.7545 464.264 73.3747 464.059 72.4051C463.891 71.3795 463.798 70.8387 463.798 70.8387Z" fill="#0063F8"/>
<path d="M578.899 61.0306C578.899 61.0306 578.843 61.2916 578.768 61.7578C578.694 61.9816 578.694 62.2799 578.712 62.5783C578.712 62.8766 578.731 63.2122 578.824 63.5852C578.918 64.331 579.384 65.1142 579.869 65.8601C580.428 66.5873 581.1 67.2959 581.864 67.8926C582.647 68.4706 583.487 68.9368 584.344 69.2538C585.184 69.5148 586.023 69.7386 586.75 69.664C587.123 69.664 587.459 69.6267 587.757 69.5521C588.074 69.5148 588.335 69.4402 588.54 69.3097C588.988 69.1232 589.23 69.03 589.23 69.03C589.23 69.03 589.044 69.2351 588.727 69.5894C588.559 69.7759 588.335 69.9623 588.018 70.1488C587.72 70.3539 587.366 70.559 586.937 70.6709C586.097 70.9506 584.997 70.9879 583.915 70.7455C582.815 70.5031 581.79 69.9064 580.838 69.2165C579.962 68.452 579.179 67.5569 578.712 66.55C578.265 65.5431 578.022 64.5175 578.078 63.6598C578.06 63.2309 578.134 62.8393 578.246 62.485C578.321 62.1307 578.433 61.8697 578.563 61.6646C578.768 61.273 578.899 61.0306 578.899 61.0306Z" fill="#0063F8"/>
<path d="M577.855 46.5794C577.855 46.5794 577.892 46.8032 577.985 47.1947C578.06 47.5863 578.284 48.0525 578.601 48.5932C578.899 49.134 579.421 49.6748 579.981 50.1969C580.54 50.719 581.174 51.2411 581.827 51.7072C582.498 52.1548 583.188 52.5836 583.878 52.882C584.568 53.1803 585.202 53.4787 585.818 53.5533C586.415 53.6651 586.955 53.7024 587.328 53.6279C587.72 53.5719 587.944 53.5346 587.944 53.5346C587.944 53.5346 587.757 53.6838 587.44 53.9262C587.105 54.1313 586.545 54.467 585.818 54.5602C585.09 54.6721 584.195 54.6721 583.337 54.3924C582.442 54.1686 581.603 53.6651 580.82 53.143C580.074 52.5277 579.347 51.8937 578.88 51.1105C578.377 50.3647 578.078 49.5629 577.892 48.8729C577.706 48.2017 577.724 47.549 577.761 47.1761C577.817 46.8032 577.855 46.5794 577.855 46.5794Z" fill="#0063F8"/>
<path d="M688.051 43.223C688.051 43.223 688.163 43.6146 688.387 44.2859C688.573 44.9572 688.89 45.9268 689.114 47.1202C689.356 48.3136 689.636 49.6934 689.767 51.2224C689.916 52.7515 689.879 54.3924 689.692 56.0519C689.431 57.6928 688.965 59.3151 688.275 60.7509C687.529 62.1494 686.615 63.3428 685.664 64.1632C685.235 64.6294 684.731 64.9091 684.303 65.1888C683.892 65.4685 683.482 65.655 683.165 65.8041C682.512 66.0652 682.121 66.2144 682.121 66.2144C682.121 66.2144 682.419 65.9533 682.96 65.4872C683.24 65.282 683.557 65.0023 683.855 64.6294C684.172 64.2751 684.564 63.9208 684.899 63.4547C685.683 62.6156 686.242 61.3849 686.839 60.1169C687.342 58.793 687.753 57.3386 687.995 55.8282C688.219 54.3178 688.349 52.7701 688.405 51.297C688.424 49.8239 688.443 48.4441 688.349 47.2507C688.275 46.0573 688.219 45.069 688.144 44.3605C688.07 43.6333 688.051 43.223 688.051 43.223Z" fill="#0063F8"/>
<path d="M692.695 51.4835C692.695 51.4835 692.844 51.558 693.123 51.6886C693.347 51.9123 693.72 52.3039 693.832 52.8447C693.981 53.3854 694.037 54.0008 694.019 54.672C694 55.3247 693.888 56.0146 693.739 56.6672C693.571 57.3385 693.366 57.9725 693.123 58.5505C692.9 59.1472 692.583 59.6507 692.359 60.0982C692.135 60.5457 691.855 60.8814 691.687 61.1424C691.501 61.3848 691.408 61.534 691.408 61.534C691.408 61.534 691.408 61.3662 691.408 61.0492C691.426 60.7509 691.426 60.3033 691.52 59.8185C691.613 59.3337 691.669 58.737 691.799 58.1403C691.911 57.5436 692.098 56.9096 692.247 56.2943C692.415 55.7163 692.545 55.1941 692.75 54.4856C692.862 53.9262 693.049 53.3668 693.049 52.9193C693.086 52.4531 693.068 52.0988 692.974 51.8377C692.806 51.614 692.695 51.4835 692.695 51.4835Z" fill="#0063F8"/>
<path d="M520.397 46.8405C520.397 46.8405 521.069 46.2624 522.356 45.3487C523.661 44.4723 525.526 43.1484 527.932 41.8991C530.337 40.6498 533.172 39.1767 536.174 37.6849C539.121 36.1746 542.329 34.6455 545.835 33.4335C549.285 32.2588 552.828 31.4383 556.185 30.8789C559.523 30.2636 562.693 30.0585 565.379 29.7974C568.064 29.5177 570.339 29.5736 571.924 29.5177C573.509 29.5363 574.405 29.4804 574.405 29.4804C574.405 29.4804 573.547 29.7601 572.074 30.3754C570.582 30.9162 568.493 31.8112 565.957 32.613C563.402 33.4335 560.493 34.5523 557.341 35.5406C554.189 36.5661 550.888 37.629 547.569 38.7105C544.287 39.6615 540.911 40.8922 537.554 41.5448C534.254 42.272 531.195 42.8501 528.659 43.6519C526.123 44.4164 523.997 45.0877 522.598 45.759C521.889 46.0759 521.33 46.337 520.957 46.5421C520.603 46.7286 520.397 46.8405 520.397 46.8405Z" fill="#0063F8"/>
<path d="M21.9311 51.6513C21.9311 53.9821 23.8333 55.8841 26.1644 55.8841C28.4955 55.8841 30.3977 53.9821 30.3977 51.6513C30.3977 49.3205 28.4955 47.4185 26.1644 47.4185C23.8333 47.4185 21.9311 49.3205 21.9311 51.6513Z" fill="#0063F8"/>
<path d="M191.226 56.8537C193.049 56.8537 194.527 55.3761 194.527 53.5533C194.527 51.7305 193.049 50.2528 191.226 50.2528C189.403 50.2528 187.925 51.7305 187.925 53.5533C187.925 55.3761 189.403 56.8537 191.226 56.8537Z" fill="#0063F8"/>
<path d="M209.558 37.0696C209.558 37.0696 210.322 37.1069 211.59 37.3306C212.877 37.5357 214.667 38.0765 216.644 39.0275C218.621 39.9598 220.766 41.5075 222.463 43.5027C223.395 44.6215 224.122 45.703 224.682 46.971C224.962 47.6049 225.26 48.2576 225.428 48.9475L225.745 49.9731L225.931 51.0173C226.454 53.8143 226.267 56.7232 225.577 59.3151C224.868 61.9069 223.768 64.2005 222.463 65.9346C221.866 66.8483 221.157 67.5569 220.598 68.2468C219.964 68.8622 219.404 69.4216 218.901 69.8318C217.856 70.6336 217.26 71.0811 217.26 71.0811C217.26 71.0811 217.95 70.7641 219.162 70.2234C219.721 69.8877 220.411 69.4402 221.195 68.9181C221.885 68.3028 222.78 67.6688 223.488 66.7551C224.999 65.0023 226.491 62.6342 227.274 59.7999C228.095 56.9842 228.281 53.777 227.666 50.7003L227.423 49.5442L227.05 48.4254C226.827 47.6795 226.472 46.971 226.137 46.281C225.447 44.8825 224.477 43.5959 223.544 42.6076C221.512 40.4073 219.106 39.1021 216.98 38.2443C214.835 37.4052 212.914 37.1815 211.609 37.0882C210.304 37.0136 209.558 37.0696 209.558 37.0696Z" fill="#0063F8"/>
<path d="M222.705 57.6742C222.705 57.6742 222.295 57.3012 221.53 56.6672C220.747 56.0519 219.535 55.2874 217.931 54.672C216.327 54.0567 214.35 53.5532 212.187 53.46C210.024 53.3108 207.693 53.6092 205.455 54.2432C203.236 54.9331 201.091 56.0146 199.394 57.3758C197.66 58.7184 196.392 60.322 195.403 61.7205C194.396 63.119 193.818 64.4056 193.37 65.282C192.979 66.1957 192.755 66.6991 192.755 66.6991C192.755 66.6991 193.109 66.2703 193.725 65.4871C194.303 64.704 195.217 63.6411 196.298 62.4104C197.38 61.1797 198.797 59.8931 200.42 58.737C202.061 57.5996 203.944 56.6113 205.996 55.996C208.028 55.362 210.154 55.0077 212.168 54.9331C214.183 54.8585 216.103 55.0263 217.67 55.4552C219.236 55.8841 220.542 56.3689 221.381 56.8723C222.258 57.3385 222.705 57.6742 222.705 57.6742Z" fill="#0063F8"/>
<path d="M230.202 70.8387C230.202 70.8387 230.015 71.3608 229.698 72.2932C229.381 73.2069 228.859 74.5121 228.169 76.0039C227.479 77.4956 226.509 79.1738 225.279 80.7588C224.066 82.3437 222.556 83.9101 220.878 85.1967C219.236 86.5206 217.334 87.4156 215.469 88.0496C213.586 88.6277 211.74 89.0192 210.117 89.0565C208.513 89.0938 207.133 89.0565 206.182 88.8887C205.212 88.7955 204.653 88.665 204.653 88.665C204.653 88.665 205.138 88.9447 206.052 89.3735C206.965 89.7651 208.345 90.2499 210.08 90.3991C211.796 90.5669 213.884 90.5296 216.01 89.9516C218.136 89.3922 220.318 88.3293 222.146 86.8376C223.936 85.3272 225.484 83.5744 226.621 81.7284C227.778 79.8824 228.468 77.9804 228.99 76.3768C229.512 74.7545 229.736 73.3747 229.941 72.4051C230.109 71.3795 230.202 70.8387 230.202 70.8387Z" fill="#0063F8"/>
<path d="M5.96764 43.223C5.96764 43.223 5.85574 43.6146 5.63196 44.2859C5.44547 44.9572 5.12844 45.9268 4.90465 47.1202C4.66222 48.3136 4.38248 49.6934 4.25194 51.2224C4.10275 52.7515 4.14005 54.3924 4.32653 56.0519C4.58762 57.6928 5.05384 59.3151 5.74385 60.7509C6.48981 62.1494 7.4036 63.3428 8.3547 64.1632C8.78362 64.6294 9.28714 64.9091 9.71607 65.1888C10.1263 65.4685 10.5366 65.655 10.8536 65.8041C11.5064 66.0652 11.898 66.2144 11.898 66.2144C11.898 66.2144 11.5996 65.9533 11.0588 65.4872C10.7791 65.282 10.462 65.0023 10.1636 64.6294C9.84661 64.2751 9.45498 63.9208 9.1193 63.4547C8.33605 62.6156 7.77658 61.3849 7.17982 60.1169C6.6763 58.793 6.26602 57.3386 6.02358 55.8282C5.7998 54.3178 5.66926 52.7701 5.61331 51.297C5.59466 49.8239 5.57601 48.4441 5.66926 47.2507C5.74385 46.0573 5.7998 45.069 5.87439 44.3605C5.93034 43.6333 5.96764 43.223 5.96764 43.223Z" fill="#0063F8"/>
<path d="M1.32408 51.4835C1.32408 51.4835 1.17489 51.558 0.89516 51.6886C0.671373 51.9123 0.298395 52.3039 0.186502 52.8447C0.0373104 53.3854 -0.0186363 54.0008 1.25854e-05 54.672C0.0186615 55.3247 0.130555 56.0146 0.279746 56.6672C0.447586 57.3385 0.652724 57.9725 0.89516 58.5505C1.11895 59.1472 1.43598 59.6694 1.65976 60.1169C1.88355 60.5644 2.16328 60.9 2.33112 61.1611C2.51761 61.4035 2.61086 61.5527 2.61086 61.5527C2.61086 61.5527 2.61086 61.3848 2.61086 61.0678C2.59221 60.7695 2.59221 60.322 2.49896 59.8372C2.40572 59.3524 2.34977 58.7557 2.21923 58.159C2.10734 57.5623 1.92085 56.9283 1.77166 56.3129C1.60382 55.7349 1.47328 55.2128 1.26814 54.5042C1.15624 53.9448 0.969755 53.3854 0.969755 52.9379C0.932457 52.4717 0.951106 52.1174 1.04435 51.8564C1.19354 51.614 1.32408 51.4835 1.32408 51.4835Z" fill="#0063F8"/>
<path d="M505.907 54.411C505.907 54.411 505.851 54.1126 505.777 53.5532C505.683 52.9938 505.572 52.1547 505.255 51.1105C504.676 49.0221 503.464 46.0013 500.947 42.8687C498.448 39.8106 494.569 36.5288 489.347 34.9998C488.694 34.8133 488.023 34.6828 487.352 34.515C486.662 34.4217 485.972 34.3285 485.282 34.2166C484.61 34.198 483.92 34.1793 483.212 34.1607C482.447 34.2353 481.589 34.2353 480.899 34.3472C478.12 34.7574 475.043 35.8575 472.339 37.573C469.598 39.2885 467.155 41.7312 465.271 44.6028C463.481 47.5304 462.232 50.9241 462.194 54.4669C461.952 61.534 466.148 69.0859 472.712 73.0204C474.335 74.0273 476.125 74.7359 477.953 75.1834L478.643 75.3512C478.717 75.3698 478.96 75.4258 478.885 75.4071L479.295 75.4631C479.855 75.5563 480.433 75.6309 480.824 75.6495C481.682 75.7428 482.745 75.7428 483.715 75.7055C487.687 75.519 491.734 74.3443 495.576 72.5169C497.515 71.6219 499.306 70.5217 501.357 69.291C503.296 68.1163 505.217 66.9043 507.157 65.6549C511.017 63.1563 514.859 60.5271 518.7 57.8606C526.421 52.6023 534.16 47.1574 542.198 42.3466C550.086 37.573 558.143 32.8181 566.815 29.7228C571.141 28.1751 575.635 27.0377 580.26 26.8139C584.867 26.5715 589.678 27.5038 593.632 29.7601C597.958 32.5011 600.308 36.6034 601.166 40.9108C601.576 43.0552 601.557 45.2555 601.091 47.3439C600.979 47.866 600.811 48.3695 600.662 48.8729L600.625 48.9662L600.55 49.1526L600.494 49.3204L600.364 49.6374L600.103 50.2528C599.86 50.7376 599.599 51.241 599.338 51.7072C599.058 52.1361 598.779 52.565 598.48 52.9752C596.037 56.2011 592.606 58.2149 589.137 59.0167C587.403 59.4269 585.613 59.5202 583.934 59.2964C583.132 59.1845 582.2 58.9981 581.51 58.7743C580.671 58.5133 579.962 58.2149 579.253 57.842C576.456 56.4062 574.33 54.0008 573.472 51.4275C572.596 48.7237 572.95 46.1505 573.957 44.1553C574.983 42.1415 576.81 40.9294 578.414 40.5379C580.055 40.109 581.51 40.3141 582.573 40.687C584.736 41.4702 585.277 42.7382 585.314 42.6636C585.296 42.7382 584.606 41.5634 582.48 41.0413C581.454 40.7989 580.074 40.7616 578.657 41.3024C577.239 41.8245 575.859 42.9992 575.188 44.752C574.442 46.4489 574.386 48.7424 575.225 50.7003C576.12 52.7887 577.985 54.4856 580.354 55.4738C582.647 56.4621 585.575 56.6299 588.242 55.7908C590.946 54.9517 593.538 53.1803 595.235 50.6816L595.832 49.7307L596.28 48.7983L596.504 48.1643L596.615 47.8474L596.671 47.6795L596.69 47.6422C596.615 47.8287 596.671 47.6795 596.671 47.6982L596.69 47.6236C596.765 47.2507 596.895 46.8964 596.932 46.5234C597.175 45.0131 597.1 43.4281 596.727 41.8618C596.336 40.3141 595.664 38.7851 594.676 37.4612C593.744 36.1745 592.364 34.9625 591.189 34.2912C584.867 31.084 576.68 32.4638 568.94 35.5033C561.108 38.58 553.499 43.223 545.685 48.0898C537.946 52.8633 530.375 58.2522 522.635 63.6038C518.756 66.2516 514.84 68.8995 510.849 71.4354C508.854 72.7034 506.821 73.9527 504.788 75.1647C502.849 76.3022 500.667 77.5888 498.392 78.6144C493.897 80.6841 488.974 82.0826 483.883 82.2132C482.596 82.2318 481.384 82.2132 480.023 82.0267C479.314 81.9521 478.773 81.8589 478.232 81.7657L477.822 81.6911C477.468 81.6165 477.449 81.5978 477.263 81.5605L476.33 81.3181C473.85 80.6469 471.5 79.6213 469.43 78.2414C461.057 72.8525 456.357 63.2495 457.084 54.1872C457.401 49.6374 459.21 45.5165 461.542 42.1228C463.985 38.7851 467.006 36.0999 470.288 34.2166C473.626 32.352 477.095 31.3078 480.675 31.0653C481.552 30.9908 482.298 31.0653 483.081 31.0467C484.051 31.1026 484.778 31.2145 485.617 31.3078C486.419 31.4942 487.202 31.6434 487.948 31.8299C488.694 32.0723 489.422 32.296 490.13 32.5757C495.8 34.7947 499.529 38.6918 501.916 42.1042C504.21 45.647 505.143 48.8543 505.516 51.0359C505.739 52.1361 505.777 52.9752 505.795 53.5346C505.87 54.1126 505.907 54.411 505.907 54.411Z" fill="#0063F8"/>
<path d="M505.907 70.7828C505.907 70.7828 505.87 70.4844 505.795 69.925C505.721 69.3656 505.627 68.5265 505.329 67.4637C504.807 65.3566 503.669 62.2799 501.189 59.054C498.709 55.9027 494.886 52.4717 489.552 50.7749C488.881 50.5698 488.209 50.4206 487.519 50.2341C486.811 50.1223 486.102 49.9917 485.375 49.8799C484.666 49.8426 483.864 49.7866 483.193 49.768C482.428 49.8239 481.608 49.8053 480.843 49.9172C477.859 50.2714 474.689 51.3716 471.817 53.1244C468.945 54.8772 466.353 57.3758 464.32 60.3779C462.399 63.4173 461.001 66.9975 460.889 70.7828C460.516 78.3347 464.842 86.4087 471.854 90.7161C475.304 92.8977 479.538 93.9047 483.734 93.7368C487.986 93.569 492.256 92.3383 496.266 90.4364C504.229 86.3528 511.987 80.9639 519.67 75.6869C527.391 70.3912 535.093 64.9837 543.056 60.1728C550.926 55.3806 558.87 50.6444 567.337 47.5677C571.551 46.02 575.915 44.8826 580.335 44.6401C584.736 44.3604 589.268 45.1995 593.016 47.288C600.774 52.0988 602.453 62.6715 597.678 68.7876C595.422 71.827 592.196 73.7849 588.913 74.6053C585.594 75.4258 582.237 75.0156 579.533 73.6544C576.848 72.3305 574.778 70.0928 573.92 67.6501C573.043 65.1328 573.342 62.6342 574.274 60.7136C575.207 58.7557 576.922 57.5623 578.489 57.1334C580.074 56.6859 581.51 56.8537 582.554 57.1707C584.717 57.8979 585.277 59.1286 585.314 59.054C585.296 59.1286 584.643 57.9352 582.498 57.3385C581.454 57.0588 580.074 56.9842 578.601 57.4877C577.127 57.9725 575.654 59.1473 574.889 60.9746C574.088 62.7461 573.957 65.1142 574.796 67.2586C575.673 69.4589 577.612 71.3422 580.093 72.4423C582.536 73.5611 585.594 73.8222 588.485 72.9644C591.375 72.144 594.191 70.298 596.075 67.6315C596.541 66.9602 596.932 66.2516 597.25 65.5431C597.604 64.6667 597.828 63.9767 597.977 63.119C598.275 61.4781 598.219 59.7253 597.828 58.0285C597.1 54.6348 594.825 51.3343 591.785 49.5815C588.429 47.866 584.512 47.2134 580.484 47.5304C576.456 47.8287 572.391 48.9662 568.381 50.4766C560.343 53.5719 552.623 58.2336 544.79 63.0817C536.976 67.8739 529.349 73.2628 521.628 78.5957C517.749 81.2436 513.852 83.8914 509.898 86.4087C507.921 87.6767 505.907 88.9074 503.893 90.1194C501.916 91.2755 499.828 92.5248 497.646 93.5131C493.319 95.5269 488.601 96.8695 483.79 97C482.577 97.0187 481.421 97 480.172 96.8508C479.538 96.7949 478.997 96.7017 478.437 96.6084L478.027 96.5338L477.542 96.422L476.666 96.1982C474.353 95.5829 472.134 94.6319 470.176 93.3453C462.25 88.3107 457.681 79.2297 458.297 70.6709C458.539 66.3635 460.217 62.4291 462.418 59.1659C464.712 55.94 467.584 53.3108 470.754 51.4835C473.943 49.6561 477.3 48.5932 480.694 48.3135C481.533 48.2203 482.298 48.2762 483.081 48.2576C483.957 48.2949 484.703 48.4068 485.505 48.4814C486.27 48.6492 487.035 48.7797 487.78 48.9475C488.508 49.1713 489.235 49.3764 489.925 49.6188C495.482 51.6699 499.25 55.4179 501.674 58.737C504.024 62.1867 505.031 65.338 505.441 67.501C505.683 68.5825 505.739 69.4216 505.795 69.981C505.87 70.5031 505.907 70.7828 505.907 70.7828Z" fill="#0063F8"/>
<path d="M590.573 73.4119C590.573 73.4119 592.513 71.8456 595.925 69.0859C599.413 66.4381 604.224 62.4104 610.322 58.0471C616.439 53.7024 623.47 48.444 631.396 43.3908C635.331 40.8362 639.545 38.207 644.245 36.0253C648.907 33.8623 654.166 32.1468 659.705 31.8298C665.187 31.5501 671.025 32.5757 675.911 35.5965C680.815 38.5986 684.47 43.4654 685.589 49.0034C685.869 50.346 685.981 51.8564 685.925 53.1243C685.85 54.672 685.608 55.9213 685.198 57.2453C684.396 59.8185 683.016 62.112 681.188 63.9394C679.398 65.7481 677.048 67.0907 674.754 67.6128C672.218 68.2281 669.962 68.0044 667.854 67.4263C663.658 66.2703 660.469 62.8579 659.817 59.4456C659.089 55.8095 660.32 53.0311 661.607 51.0919C663.024 49.2085 664.665 48.2949 665.803 47.9219C666.94 47.5303 667.593 47.5676 667.574 47.5303C667.593 47.5676 666.94 47.6609 665.952 48.2389C664.964 48.7983 663.658 49.9544 662.782 51.8004C661.849 53.5532 661.402 56.2943 662.315 58.5878C663.248 61.0865 665.747 62.9884 668.824 63.6224C670.316 63.9208 672.088 63.8462 673.449 63.3614C675.053 62.8206 676.358 61.8323 677.477 60.4898C678.559 59.1659 679.361 57.5063 679.752 55.7349C679.957 54.8958 680.051 53.8702 680.032 53.1243C680.013 52.0988 679.901 51.2783 679.678 50.346C678.727 46.7285 676.041 43.3162 672.516 41.2837C668.973 39.1953 664.535 38.4121 660.096 38.6918C655.639 38.8783 651.219 40.2208 646.949 42.0669C642.678 43.9315 638.575 46.2624 634.529 48.5559C626.472 53.1989 618.808 57.3758 612.392 61.217C605.977 65.0396 600.401 67.9298 596.634 70.1301C592.774 72.2185 590.573 73.4119 590.573 73.4119Z" fill="#0063F8"/>
<path d="M672.069 51.6513C672.069 53.9821 670.167 55.884 667.836 55.884C665.504 55.884 663.602 53.9821 663.602 51.6513C663.602 49.3204 665.504 47.4185 667.836 47.4185C670.185 47.4185 672.069 49.3204 672.069 51.6513Z" fill="#0063F8"/>
<path d="M599.021 62.5782C599.021 62.5782 599.898 62.0188 601.278 60.8627C602.676 59.7253 604.485 57.8792 606.63 55.6416C608.775 53.3854 611.423 50.8681 614.406 48.3694C617.39 45.8521 620.728 43.3535 624.197 41.0599C627.684 38.7664 631.265 36.6407 634.771 34.9065C638.258 33.1351 641.634 31.7739 644.543 30.6737C647.452 29.5736 649.951 28.8464 651.704 28.3429C653.457 27.8954 654.464 27.6343 654.464 27.6343C654.464 27.6343 653.495 28.0073 651.816 28.6786C650.119 29.3125 647.751 30.3568 644.935 31.6061C642.1 32.8554 638.892 34.4777 635.498 36.305C632.104 38.1324 628.542 40.1836 625.111 42.4212C621.624 44.6401 618.285 47.0269 615.227 49.3764C612.169 51.7445 609.39 54.038 607.152 56.1824C604.896 58.3081 602.9 59.9863 601.427 61.0678C599.935 62.0934 599.021 62.5782 599.021 62.5782Z" fill="#0063F8"/>
<path d="M605.213 51.2224C605.213 51.2224 605.548 50.8308 606.164 50.1223C606.779 49.451 607.656 48.4441 608.812 47.3625C609.949 46.2624 611.292 45.0131 612.821 43.7264C614.332 42.4585 616.029 41.1905 617.726 39.9412C619.46 38.7291 621.213 37.5544 622.892 36.5475C624.57 35.5033 626.211 34.6642 627.591 33.8997C628.971 33.1351 630.183 32.613 631.004 32.1842C631.843 31.7926 632.328 31.5875 632.328 31.5875C632.328 31.5875 631.899 31.9045 631.172 32.4639C630.426 32.986 629.382 33.7878 628.076 34.6828C626.771 35.5592 625.297 36.6594 623.675 37.7409C622.015 38.8783 620.337 40.0344 618.621 41.1905C616.905 42.3652 615.208 43.5773 613.623 44.7147C612.057 45.8708 610.565 46.9337 609.353 47.9219C608.122 48.8916 607.077 49.6934 606.387 50.2901C605.623 50.8868 605.213 51.2224 605.213 51.2224Z" fill="#0063F8"/>
<path d="M648.553 50.9614C648.553 50.9614 647.9 51.297 646.8 51.9683C645.662 52.5463 644.151 53.7211 642.193 54.728C640.216 55.6976 637.96 57.0215 635.405 58.103C632.869 59.2218 629.978 60.0796 627.218 60.9187C624.402 61.6832 621.568 62.2612 618.882 62.6528C616.215 63.119 613.623 63.1749 611.479 63.5665C609.334 63.8835 607.45 63.9395 606.182 64.1446C604.895 64.2564 604.168 64.387 604.168 64.387C604.168 64.387 604.802 64.014 605.921 63.3428C607.059 62.7461 608.644 61.7019 610.658 60.8068C612.691 59.9677 614.985 58.6624 617.577 57.7674C620.15 56.7791 622.929 55.94 625.726 55.2501C628.58 54.6348 631.284 54.0008 633.932 53.4787C636.561 52.9379 639.116 52.6023 641.242 52.1361C643.387 51.7072 645.289 51.6326 646.539 51.3343C647.844 51.1292 648.553 50.9614 648.553 50.9614Z" fill="#0063F8"/>
<path d="M188.111 54.411C188.111 54.411 188.149 54.1126 188.242 53.5532C188.335 52.9938 188.447 52.1547 188.764 51.1105C189.342 49.0221 190.554 46.0013 193.072 42.8687C195.571 39.8106 199.45 36.5288 204.672 34.9998C205.324 34.8133 205.996 34.6828 206.667 34.515C207.357 34.4217 208.047 34.3285 208.737 34.2166C209.408 34.198 210.098 34.1793 210.807 34.1607C211.572 34.2353 212.43 34.2353 213.12 34.3472C215.898 34.7574 218.975 35.8575 221.679 37.573C224.421 39.2885 226.864 41.7312 228.747 44.6028C230.538 47.5304 231.787 50.9241 231.824 54.4669C232.067 61.534 227.871 69.0859 221.325 73.0204C219.703 74.0273 217.912 74.7359 216.085 75.1834L215.395 75.3512C215.32 75.3698 215.078 75.4258 215.152 75.4071L214.742 75.4631C214.183 75.5563 213.604 75.6309 213.213 75.6495C212.355 75.7428 211.292 75.7428 210.322 75.7055C206.35 75.519 202.285 74.3443 198.462 72.5169C196.522 71.6219 194.732 70.5217 192.68 69.291C190.741 68.1163 188.82 66.9043 186.881 65.6549C183.02 63.1563 179.179 60.5271 175.337 57.8606C167.616 52.6023 159.877 47.1574 151.839 42.3466C143.951 37.573 135.894 32.8181 127.223 29.7228C122.896 28.1751 118.402 27.0377 113.777 26.8139C109.171 26.5715 104.359 27.5038 100.406 29.7601C96.0791 32.5011 93.7293 36.6034 92.8715 40.9108C92.4612 43.0552 92.4799 45.2555 92.9461 47.3439C93.058 47.866 93.2258 48.3695 93.375 48.8729L93.4123 48.9662L93.4869 49.1526L93.5428 49.3018L93.6734 49.6188L93.9345 50.2341C94.1769 50.7189 94.438 51.2224 94.6991 51.6886C94.9788 52.1174 95.2585 52.5463 95.5569 52.9565C97.9999 56.1824 101.431 58.1963 104.9 58.9981C106.634 59.4083 108.425 59.5015 110.103 59.2778C110.905 59.1659 111.837 58.9794 112.527 58.7557C113.367 58.4946 114.075 58.1963 114.784 57.8233C117.581 56.3875 119.707 53.9821 120.565 51.4089C121.442 48.7051 121.087 46.1319 120.08 44.1367C119.055 42.1228 117.227 40.9108 115.623 40.5192C113.982 40.0903 112.527 40.2954 111.464 40.6684C109.301 41.4515 108.76 42.7195 108.723 42.6449C108.742 42.7195 109.432 41.5448 111.558 41.0227C112.583 40.7803 113.963 40.743 115.381 41.2837C116.798 41.8058 118.178 42.9806 118.849 44.7334C119.595 46.4302 119.651 48.7237 118.812 50.6816C117.917 52.7701 116.052 54.4669 113.684 55.4552C111.39 56.4435 108.462 56.6113 105.795 55.7722C103.091 54.9331 100.499 53.1617 98.8018 50.663L98.2051 49.712L97.7575 48.7797L97.5337 48.1457L97.4218 47.8287L97.3659 47.6609L97.3472 47.6236C97.4218 47.8101 97.3659 47.6609 97.3659 47.6795L97.3472 47.6049C97.2726 47.232 97.1421 46.8777 97.1048 46.5048C96.8623 44.9944 96.9369 43.4094 97.3099 41.8431C97.7015 40.2955 98.3729 38.7664 99.3613 37.4425C100.294 36.1559 101.674 34.9439 102.849 34.2726C109.171 31.0653 117.357 32.4452 125.097 35.4846C132.929 38.5613 140.538 43.2043 148.352 48.0711C156.091 52.8447 163.681 58.2335 171.402 63.5851C175.281 66.233 179.197 68.8808 183.188 71.4167C185.184 72.6847 187.216 73.9341 189.249 75.1461C191.188 76.2835 193.37 77.5702 195.646 78.5957C200.14 80.6655 205.063 82.064 210.154 82.1945C211.441 82.2132 212.653 82.1945 214.015 82.0081C214.723 81.9335 215.264 81.8402 215.805 81.747L216.215 81.6724C216.57 81.5978 216.588 81.5792 216.775 81.5419L217.707 81.2995C220.187 80.6282 222.537 79.6026 224.607 78.2228C232.981 72.8339 237.68 63.2309 236.953 54.1686C236.636 49.6188 234.827 45.4979 232.496 42.1042C230.053 38.7664 227.032 36.0813 223.749 34.198C220.411 32.3333 216.943 31.2891 213.362 31.0467C212.486 30.9721 211.74 31.0467 210.956 31.0281C209.987 31.084 209.259 31.1959 208.42 31.2891C207.618 31.4756 206.835 31.6247 206.089 31.8112C205.343 32.0536 204.616 32.2774 203.907 32.5571C198.238 34.776 194.508 38.6732 192.121 42.0855C189.827 45.6284 188.895 48.8356 188.522 51.0173C188.298 52.1174 188.261 52.9565 188.242 53.5159C188.13 54.1126 188.111 54.411 188.111 54.411Z" fill="#0063F8"/>
<path d="M188.111 70.7828C188.111 70.7828 188.149 70.4844 188.223 69.925C188.298 69.3656 188.391 68.5265 188.689 67.4637C189.212 65.3566 190.349 62.2799 192.83 59.054C195.31 55.9027 199.133 52.4717 204.466 50.7749C205.138 50.5698 205.809 50.4206 206.499 50.2341C207.208 50.1223 207.917 49.9917 208.644 49.8799C209.352 49.8426 210.154 49.7866 210.826 49.768C211.59 49.8239 212.411 49.8053 213.175 49.9172C216.159 50.2714 219.33 51.3716 222.202 53.1244C225.073 54.8772 227.666 57.3758 229.698 60.3779C231.619 63.4173 233.018 66.9975 233.13 70.7828C233.503 78.3347 229.176 86.4087 222.164 90.7161C218.714 92.8977 214.481 93.9047 210.285 93.7368C206.033 93.569 201.762 92.3383 197.753 90.4364C189.79 86.3528 182.032 80.9639 174.348 75.6869C166.628 70.3912 158.926 64.9837 150.963 60.1728C143.093 55.3806 135.149 50.6444 126.682 47.5677C122.467 46.02 118.103 44.8826 113.684 44.6401C109.282 44.3604 104.751 45.1995 101.002 47.288C93.2445 52.0988 91.5661 62.6715 96.3402 68.7876C98.5967 71.827 101.823 73.7849 105.105 74.6053C108.425 75.4258 111.781 75.0156 114.486 73.6544C117.171 72.3305 119.241 70.0928 120.099 67.6501C120.975 65.1328 120.677 62.6342 119.745 60.7136C118.812 58.7557 117.096 57.5623 115.53 57.1334C113.945 56.6859 112.509 56.8537 111.464 57.1707C109.301 57.8979 108.742 59.1286 108.704 59.054C108.723 59.1286 109.376 57.9352 111.52 57.3385C112.565 57.0588 113.945 56.9842 115.418 57.4877C116.891 57.9725 118.365 59.1473 119.129 60.9746C119.931 62.7461 120.062 65.1142 119.222 67.2586C118.346 69.4589 116.406 71.3422 113.926 72.4423C111.483 73.5611 108.425 73.8222 105.534 72.9644C102.643 72.144 99.8275 70.298 97.944 67.6315C97.4778 66.9602 97.0861 66.2516 96.7691 65.5431C96.4148 64.6667 96.191 63.9767 96.0418 63.119C95.7434 61.4781 95.7994 59.7253 96.191 58.0285C96.9183 54.6348 99.1934 51.3343 102.233 49.5815C105.59 47.866 109.506 47.2134 113.534 47.5304C117.563 47.8287 121.628 48.9662 125.638 50.4766C133.675 53.5719 141.396 58.2336 149.228 63.0817C157.042 67.8739 164.67 73.2628 172.39 78.5957C176.269 81.2436 180.167 83.8914 184.121 86.4087C186.097 87.6767 188.111 88.9074 190.125 90.1194C192.102 91.2755 194.191 92.5248 196.373 93.5131C200.699 95.5269 205.418 96.8695 210.229 97C211.441 97.0187 212.597 97 213.847 96.8508C214.481 96.7949 215.022 96.7017 215.581 96.6084L215.991 96.5338L216.476 96.422L217.353 96.1982C219.665 95.5829 221.885 94.6319 223.843 93.3453C231.768 88.3107 236.337 79.2297 235.722 70.6709C235.48 66.3635 233.801 62.4291 231.601 59.1659C229.307 55.94 226.435 53.3108 223.265 51.4835C220.076 49.6561 216.719 48.5932 213.325 48.3135C212.485 48.2203 211.721 48.2762 210.938 48.2576C210.061 48.2949 209.315 48.4068 208.513 48.4814C207.749 48.6492 206.984 48.7797 206.238 48.9475C205.511 49.1713 204.784 49.3764 204.093 49.6188C198.536 51.6699 194.769 55.4179 192.345 58.737C189.995 62.1867 188.988 65.338 188.578 67.501C188.335 68.5825 188.279 69.4216 188.223 69.981C188.13 70.5031 188.111 70.7828 188.111 70.7828Z" fill="#0063F8"/>
<path d="M103.427 73.4119C103.427 73.4119 101.487 71.8456 98.0745 69.0859C94.5872 66.4381 89.7758 62.4104 83.6776 58.0471C77.5607 53.7024 70.5301 48.444 62.6043 43.3908C58.6694 40.8362 54.4548 38.207 49.7552 36.0253C45.093 33.8623 39.834 32.1468 34.2953 31.8298C28.8125 31.5501 22.9754 32.5757 18.0894 35.5965C13.1848 38.5986 9.52958 43.4654 8.41064 49.0034C8.13091 50.346 8.01901 51.8564 8.07496 53.1243C8.14956 54.672 8.39199 55.9213 8.80227 57.2453C9.60417 59.8185 10.9842 62.112 12.8118 63.9394C14.6021 65.7481 16.9518 67.0907 19.2456 67.6128C21.7819 68.2281 24.0384 68.0044 26.1457 67.4263C30.3417 66.2703 33.5307 62.8579 34.1834 59.4456C34.9107 55.8095 33.6799 53.0311 32.3931 51.0919C30.9758 49.2085 29.3347 48.2949 28.1971 47.9219C27.0595 47.5303 26.4068 47.5676 26.4255 47.5303C26.4068 47.5676 27.0595 47.6609 28.0479 48.2389C29.0363 48.7983 30.3417 49.9544 31.2182 51.8004C32.1507 53.5532 32.5983 56.2943 31.6845 58.5878C30.752 61.0865 28.2531 62.9884 25.176 63.6224C23.6841 63.9208 21.9124 63.8462 20.5511 63.3614C18.9473 62.8206 17.6418 61.8323 16.5229 60.4898C15.4413 59.1659 14.6394 57.5063 14.2477 55.7349C14.0426 54.8958 13.9494 53.8702 13.968 53.1243C13.9867 52.0988 14.0986 51.2783 14.3223 50.346C15.2734 46.7285 17.9589 43.3162 21.4835 41.2837C25.0268 39.1953 29.4652 38.4121 33.9037 38.6918C38.3608 38.8783 42.7806 40.2208 47.0511 42.0669C51.3217 43.9315 55.4245 46.2624 59.4713 48.5559C67.5276 53.1989 75.1923 57.3758 81.6076 61.217C88.0228 65.0396 93.5988 67.9298 97.3659 70.1301C101.226 72.2185 103.427 73.4119 103.427 73.4119Z" fill="#0063F8"/>
<path d="M94.9788 62.5782C94.9788 62.5782 94.1023 62.0188 92.7223 60.8627C91.3236 59.7253 89.5147 57.8792 87.3701 55.6416C85.2254 53.3854 82.5773 50.8681 79.5935 48.3694C76.6096 45.8521 73.2715 43.3535 69.8028 41.0599C66.3155 38.7664 62.7349 36.6407 59.2289 34.9065C55.7415 33.1351 52.3661 31.7739 49.4569 30.6737C46.5476 29.5736 44.0487 28.8464 42.2957 28.3429C40.5427 27.8954 39.5356 27.6343 39.5356 27.6343C39.5356 27.6343 40.5054 28.0073 42.1838 28.6786C43.8808 29.3125 46.2492 30.3568 49.0652 31.6061C51.8999 32.8554 55.1075 34.4777 58.5016 36.305C61.8957 38.1324 65.4576 40.1836 68.889 42.4212C72.3763 44.6401 75.7145 47.0269 78.7729 49.3764C81.8313 51.7445 84.61 54.038 86.8479 56.1824C89.1044 58.3081 91.0998 59.9863 92.5731 61.0678C94.065 62.0934 94.9788 62.5782 94.9788 62.5782Z" fill="#0063F8"/>
<path d="M88.7874 51.2224C88.7874 51.2224 88.4517 50.8308 87.8363 50.1223C87.2209 49.451 86.3444 48.4441 85.1881 47.3625C84.0505 46.2624 82.7078 45.0131 81.1786 43.7264C79.6681 42.4585 77.971 41.1905 76.274 39.9412C74.5396 38.7291 72.7866 37.5544 71.1082 36.5475C69.4298 35.5033 67.7887 34.6642 66.4087 33.8997C65.0287 33.1351 63.8165 32.613 62.9959 32.1842C62.1567 31.7926 61.6719 31.5875 61.6719 31.5875C61.6719 31.5875 62.1008 31.9045 62.8281 32.4639C63.5741 32.986 64.6184 33.7878 65.9238 34.6828C67.2292 35.5592 68.7025 36.6594 70.325 37.7409C71.9847 38.8783 73.6631 40.0344 75.3788 41.1905C77.0945 42.3652 78.7916 43.5773 80.3767 44.7147C81.9432 45.8708 83.4351 46.9337 84.6473 47.9219C85.8781 48.8916 86.9225 49.6934 87.6125 50.2901C88.3771 50.8868 88.7874 51.2224 88.7874 51.2224Z" fill="#0063F8"/>
<path d="M123.288 54.2245C123.288 54.2245 124.276 54.7279 126.011 55.623C127.745 56.518 130.188 57.8419 133.116 59.4456C136.044 61.0492 139.4 63.0257 142.944 65.2074C146.487 67.389 150.235 69.7945 153.891 72.2931C157.565 74.7918 161.089 77.4582 164.409 79.9942C167.728 82.5301 170.898 84.805 173.621 86.7629C176.344 88.7208 178.768 90.1193 180.484 91.089C182.2 92.0213 183.207 92.5061 183.207 92.5061C183.207 92.5061 182.293 91.8535 180.708 90.716C179.104 89.6159 176.903 87.9004 174.255 85.8865C171.588 83.8727 168.642 81.3554 165.36 78.7449C162.096 76.1343 158.534 73.3933 154.823 70.9133C151.075 68.4519 147.27 66.1211 143.615 64.0699C139.96 62.0002 136.473 60.2474 133.47 58.7743C130.468 57.3012 127.894 56.201 126.104 55.4179C124.314 54.672 123.288 54.2245 123.288 54.2245Z" fill="#0063F8"/>
<path d="M194.321 81.6724C194.321 81.6724 192.792 81.113 190.349 79.7332C187.869 78.3906 184.587 76.0784 180.521 73.4119C176.4 70.8573 171.887 67.5382 167.02 63.9394C164.576 62.1493 162.04 60.3033 159.411 58.5132C156.763 56.7604 154.077 54.9704 151.392 53.1803C146.002 49.6188 140.482 46.2064 135.093 43.4094C129.722 40.5378 124.444 38.3562 119.763 36.995C117.413 36.305 115.25 35.8016 113.273 35.5219C111.297 35.2608 109.544 35.2608 108.126 35.3727C106.709 35.5219 105.609 35.7643 104.881 35.9508C104.154 36.1372 103.762 36.2864 103.762 36.2864C103.762 36.2864 104.154 36.1932 104.9 36.0626C105.646 35.9321 106.746 35.8016 108.145 35.7829C110.961 35.6524 114.896 36.4729 119.465 37.9646C124.052 39.419 129.181 41.7312 134.477 44.5655C139.736 47.4931 145.144 50.98 150.553 54.4856C153.257 56.2383 155.961 57.9911 158.627 59.7066C161.276 61.4408 163.812 63.2308 166.292 64.965C171.215 68.4519 175.952 71.6219 180.13 74.0646C184.232 76.6005 187.701 78.7262 190.237 79.9569C192.792 81.1876 194.321 81.6724 194.321 81.6724Z" fill="#0063F8"/>
<path d="M115.12 61.0305C115.12 61.0305 115.176 61.2916 115.25 61.7577C115.325 61.9815 115.325 62.2798 115.306 62.5782C115.306 62.8765 115.287 63.2122 115.194 63.5851C115.101 64.331 114.635 65.1141 114.15 65.86C113.59 66.5872 112.919 67.2958 112.154 67.8925C111.371 68.4705 110.532 68.9367 109.674 69.2537C108.835 69.5148 107.996 69.7385 107.268 69.6639C106.895 69.6639 106.56 69.6266 106.261 69.552C105.944 69.5148 105.683 69.4402 105.478 69.3096C105.031 69.1232 104.788 69.0299 104.788 69.0299C104.788 69.0299 104.975 69.2351 105.292 69.5893C105.459 69.7758 105.683 69.9623 106 70.1487C106.299 70.3539 106.653 70.559 107.082 70.6709C107.921 70.9506 109.021 70.9878 110.103 70.7454C111.203 70.503 112.229 69.9063 113.18 69.2164C114.057 68.4519 114.84 67.5569 115.325 66.5499C115.772 65.543 116.015 64.5174 115.959 63.6597C115.977 63.2308 115.903 62.8392 115.791 62.485C115.716 62.1307 115.604 61.8696 115.474 61.6645C115.232 61.2729 115.12 61.0305 115.12 61.0305Z" fill="#0063F8"/>
<path d="M116.145 46.5794C116.145 46.5794 116.108 46.8032 116.015 47.1947C115.94 47.5863 115.716 48.0525 115.399 48.5932C115.101 49.134 114.579 49.6748 114.019 50.1969C113.46 50.719 112.826 51.2411 112.173 51.7072C111.502 52.1548 110.812 52.5836 110.122 52.882C109.432 53.1803 108.798 53.4787 108.182 53.5533C107.585 53.6651 107.045 53.7024 106.672 53.6279C106.28 53.5719 106.056 53.5346 106.056 53.5346C106.056 53.5346 106.243 53.6838 106.56 53.9262C106.895 54.1313 107.455 54.467 108.182 54.5602C108.91 54.6721 109.805 54.6721 110.663 54.3924C111.558 54.1686 112.397 53.6651 113.18 53.143C113.926 52.5277 114.653 51.8937 115.12 51.1105C115.623 50.3647 115.922 49.5629 116.108 48.8729C116.294 48.2017 116.276 47.549 116.239 47.1761C116.183 46.8032 116.145 46.5794 116.145 46.5794Z" fill="#0063F8"/>
<path d="M45.4474 50.9614C45.4474 50.9614 46.1001 51.297 47.2004 51.9683C48.3379 52.5463 49.8485 53.7211 51.8066 54.728C53.7834 55.6976 56.0399 57.0215 58.5948 58.103C61.1311 59.2218 64.0217 60.0796 66.7817 60.9187C69.5977 61.6832 72.4323 62.2612 75.1177 62.6528C77.7845 63.119 80.3767 63.1749 82.5214 63.5665C84.666 63.8835 86.5495 63.9395 87.8176 64.1446C89.1044 64.2564 89.8317 64.387 89.8317 64.387C89.8317 64.387 89.1977 64.014 88.0787 63.3428C86.9411 62.7461 85.356 61.7019 83.3419 60.8068C81.3092 59.9677 79.0154 58.6624 76.4232 57.7674C73.8496 56.7791 71.0709 55.94 68.2736 55.2501C65.4203 54.6348 62.7162 54.0008 60.0681 53.4787C57.4386 52.9379 54.8837 52.6023 52.7577 52.1361C50.6131 51.7072 48.7109 51.6326 47.4614 51.3343C46.156 51.1292 45.4474 50.9614 45.4474 50.9614Z" fill="#0063F8"/>
<path d="M173.603 46.8405C173.603 46.8405 172.931 46.2624 171.644 45.3487C170.339 44.4723 168.474 43.1484 166.068 41.8991C163.663 40.6498 160.828 39.1767 157.826 37.6849C154.879 36.1746 151.671 34.6455 148.165 33.4335C144.715 32.2588 141.172 31.4383 137.815 30.8789C134.477 30.2636 131.307 30.0585 128.621 29.7974C125.936 29.5177 123.661 29.5736 122.076 29.5177C120.491 29.5363 119.595 29.4804 119.595 29.4804C119.595 29.4804 120.453 29.7601 121.926 30.3754C123.418 30.9162 125.507 31.8112 128.043 32.613C130.598 33.4335 133.507 34.5523 136.659 35.5406C139.811 36.5661 143.112 37.629 146.431 38.7105C149.713 39.6615 153.089 40.8922 156.446 41.5448C159.746 42.272 162.805 42.8501 165.341 43.6519C167.877 44.4164 170.003 45.0877 171.402 45.759C172.111 46.0759 172.67 46.337 173.043 46.5421C173.397 46.7286 173.603 46.8405 173.603 46.8405Z" fill="#0063F8"/>
</g>
<defs>
<clipPath id="clip0_1137_133">
<rect width="694" height="97" fill="white"/>
</clipPath>
</defs>
</svg>
